<?xml version="1.0" encoding="UTF-8"?>
<!DOCTYPE svg PUBLIC "-//W3C//DTD SVG 1.1//EN" "http://www.w3.org/Graphics/SVG/1.1/DTD/svg11.dtd">
<svg xmlns="http://www.w3.org/2000/svg" version="1.1" width="890px" height="631px" style="shape-rendering:geometricPrecision; text-rendering:geometricPrecision; image-rendering:optimizeQuality; fill-rule:evenodd; clip-rule:evenodd" xmlns:xlink="http://www.w3.org/1999/xlink">
<g><path style="opacity:0.063" fill="#0e0d0d" d="M 446.5,130.5 C 478.45,135.332 510.45,140.166 542.5,145C 544.001,146.252 545.668,147.252 547.5,148C 575.667,176.167 603.833,204.333 632,232.5C 634.827,235.995 637.661,239.495 640.5,243C 633.983,250.348 627.317,257.515 620.5,264.5C 617.959,267.265 614.959,269.265 611.5,270.5C 611.762,271.978 611.429,273.311 610.5,274.5C 608.269,276.11 606.269,277.943 604.5,280C 603.552,280.483 602.552,280.649 601.5,280.5C 601.617,282.484 600.95,284.15 599.5,285.5C 596.959,288.265 593.959,290.265 590.5,291.5C 590.5,292.833 590.5,294.167 590.5,295.5C 587.768,297.035 585.102,298.869 582.5,301C 579.818,305.53 576.152,308.696 571.5,310.5C 571.617,312.484 570.95,314.15 569.5,315.5C 566.959,318.265 563.959,320.265 560.5,321.5C 560.762,322.978 560.429,324.311 559.5,325.5C 543.681,340.819 528.014,356.319 512.5,372C 511.552,372.483 510.552,372.649 509.5,372.5C 508.136,376.703 505.469,379.869 501.5,382C 488.618,395.732 475.618,409.232 462.5,422.5C 461.311,423.429 459.978,423.762 458.5,423.5C 457.071,426.696 455.405,429.696 453.5,432.5C 451.535,433.129 449.535,433.796 447.5,434.5C 445.465,433.796 443.465,433.129 441.5,432.5C 439.731,428.229 436.731,425.063 432.5,423C 405.794,396.802 378.461,370.969 350.5,345.5C 345.338,339.838 340.004,334.338 334.5,329C 332.76,327.306 330.76,326.139 328.5,325.5C 326.553,320.886 323.219,317.553 318.5,315.5C 308.883,304.712 298.55,294.878 287.5,286C 281.653,280.374 275.986,274.541 270.5,268.5C 268.772,266.774 266.772,265.441 264.5,264.5C 263.05,263.15 262.383,261.484 262.5,259.5C 258.805,258.641 256.138,256.475 254.5,253C 254.755,251.674 255.422,250.674 256.5,250C 272.47,250.404 288.47,250.57 304.5,250.5C 304.5,249.5 304.5,248.5 304.5,247.5C 287.487,247.833 270.487,247.499 253.5,246.5C 253.291,245.914 252.957,245.414 252.5,245C 284.997,211.169 318.331,177.836 352.5,145C 378.33,140.486 404.33,136.82 430.5,134C 435.825,132.507 441.158,131.34 446.5,130.5 Z M 618.5,251.5 C 617.448,251.351 616.448,251.517 615.5,252C 613.65,254.018 611.65,255.851 609.5,257.5C 605.904,261.599 602.071,265.599 598,269.5C 597.517,270.448 597.351,271.448 597.5,272.5C 596.448,272.351 595.448,272.517 594.5,273C 589.956,278.379 584.956,283.212 579.5,287.5C 577.585,289.071 576.585,291.071 576.5,293.5C 573.304,294.929 570.304,296.595 567.5,298.5C 567.271,300.433 566.438,302.1 565,303.5C 532.781,334.93 500.781,366.596 469,398.5C 468.536,399.094 468.369,399.761 468.5,400.5C 461.375,406.585 454.375,412.918 447.5,419.5C 443.686,416.853 440.353,413.687 437.5,410C 436.1,408.562 434.433,407.729 432.5,407.5C 432.5,406.5 432.5,405.5 432.5,404.5C 431.448,404.649 430.448,404.483 429.5,404C 421.466,395.966 413.466,387.966 405.5,380C 404.552,379.517 403.552,379.351 402.5,379.5C 402.719,378.325 402.386,377.325 401.5,376.5C 397.598,373.521 394.265,370.021 391.5,366C 386.117,361.653 380.784,357.32 375.5,353C 369.901,347.084 364.234,341.251 358.5,335.5C 354.403,333.614 351.403,330.614 349.5,326.5C 340.995,320.159 333.328,312.992 326.5,305C 324.641,304.316 322.974,303.316 321.5,302C 307.536,288.704 293.536,275.371 279.5,262C 314.857,261.619 350.19,261.286 385.5,261C 391.743,275.619 397.077,290.619 401.5,306C 405.506,313.692 408.506,321.692 410.5,330C 413.44,335.879 416.106,341.879 418.5,348C 419.879,355.465 422.046,362.632 425,369.5C 428.682,374.88 430.682,380.88 431,387.5C 434.501,391.48 436.501,396.146 437,401.5C 438.252,403.001 439.252,404.668 440,406.5C 441.11,408.037 442.61,408.703 444.5,408.5C 444.436,404.78 443.936,401.114 443,397.5C 437.264,380.267 431.098,363.267 424.5,346.5C 423.679,343.553 423.179,340.553 423,337.5C 421.217,334.657 419.717,331.657 418.5,328.5C 414.419,313.537 409.419,298.871 403.5,284.5C 400.764,273.577 397.097,262.91 392.5,252.5C 378.142,251.892 365.808,251.226 355.5,250.5C 355.5,249.5 355.5,248.5 355.5,247.5C 441.833,247.5 528.167,247.5 614.5,247.5C 613.948,243.876 612.615,240.543 610.5,237.5C 605.67,233.894 601.837,229.561 599,224.5C 590.696,216.362 582.53,208.029 574.5,199.5C 572.302,197.092 570.636,194.425 569.5,191.5C 568.325,191.719 567.325,191.386 566.5,190.5C 562.556,184.721 557.722,179.721 552,175.5C 549.689,170.858 546.356,167.191 542,164.5C 540.441,162.783 539.608,160.783 539.5,158.5C 537.208,158.244 535.041,158.577 533,159.5C 521.655,174.872 510.822,190.538 500.5,206.5C 495.326,210.26 491.993,215.26 490.5,221.5C 487.221,222.031 485.887,224.031 486.5,227.5C 485.5,227.5 484.5,227.5 483.5,227.5C 483.739,229.467 483.406,231.301 482.5,233C 483.93,234.44 485.597,234.774 487.5,234C 496.399,222.782 505.565,211.949 515,201.5C 515.615,199.884 516.615,198.551 518,197.5C 518.49,196.207 518.657,194.873 518.5,193.5C 519.822,193.67 520.989,193.337 522,192.5C 526.625,186.37 531.459,180.37 536.5,174.5C 544.103,182.235 551.437,190.235 558.5,198.5C 559.325,199.386 560.325,199.719 561.5,199.5C 561.351,200.552 561.517,201.552 562,202.5C 566.039,207.54 570.706,211.873 576,215.5C 577.686,220.394 580.853,223.894 585.5,226C 587.586,230.255 590.586,233.755 594.5,236.5C 591.167,236.833 587.833,237.167 584.5,237.5C 481.838,236.689 379.172,236.189 276.5,236C 287.056,225.608 297.723,215.441 308.5,205.5C 304.194,211.78 299.194,217.446 293.5,222.5C 291.399,225.265 289.733,228.265 288.5,231.5C 290.176,233.921 292.176,234.088 294.5,232C 297.68,227.987 301.347,224.487 305.5,221.5C 304.641,225.274 303.641,228.941 302.5,232.5C 304.199,232.66 305.866,232.494 307.5,232C 311.368,226.638 315.701,221.805 320.5,217.5C 318.026,221.743 316.026,226.243 314.5,231C 315.711,233.282 317.378,233.782 319.5,232.5C 325.199,224.867 330.366,216.867 335,208.5C 333.598,214.039 331.765,219.539 329.5,225C 329.767,228.164 331.433,229.164 334.5,228C 335.83,226.035 337.164,224.035 338.5,222C 340.53,215.317 343.03,208.817 346,202.5C 344.436,212.453 342.936,222.453 341.5,232.5C 343.5,232.5 345.5,232.5 347.5,232.5C 350.207,220.849 352.707,209.182 355,197.5C 354.889,208.497 354.889,219.497 355,230.5C 356.312,232.658 357.978,232.991 360,231.5C 362.075,222.048 363.075,212.382 363,202.5C 364.062,210.577 365.562,218.577 367.5,226.5C 368.93,226.579 370.264,226.246 371.5,225.5C 372.496,218.821 372.663,212.154 372,205.5C 375.298,214.006 378.298,222.672 381,231.5C 382.699,232.406 384.533,232.739 386.5,232.5C 384.492,224.615 382.992,216.615 382,208.5C 386.343,216.502 390.51,224.502 394.5,232.5C 396.167,232.5 397.833,232.5 399.5,232.5C 398.59,226.399 396.424,220.733 393,215.5C 392.333,214.167 392.333,212.833 393,211.5C 396.678,217.522 400.845,223.189 405.5,228.5C 407.367,231.382 410.034,232.715 413.5,232.5C 413.166,228.904 412,225.571 410,222.5C 407.611,219.997 405.444,217.331 403.5,214.5C 407.373,215.804 410.04,218.471 411.5,222.5C 415.627,224.953 418.627,228.287 420.5,232.5C 422.167,232.5 423.833,232.5 425.5,232.5C 425.165,226.453 422.499,221.786 417.5,218.5C 411.21,210.208 404.543,202.208 397.5,194.5C 396.614,193.675 396.281,192.675 396.5,191.5C 395.325,191.719 394.325,191.386 393.5,190.5C 384.03,178.53 373.696,167.363 362.5,157C 360.866,156.506 359.199,156.34 357.5,156.5C 358.589,154.883 360.256,154.05 362.5,154C 368.5,153.667 374.5,153.333 380.5,153C 398.155,149.918 415.821,146.584 433.5,143C 442.833,142.333 452.167,142.333 461.5,143C 479.098,146.587 496.765,149.92 514.5,153C 520.833,153.333 527.167,153.667 533.5,154C 538.036,155.863 541.703,158.863 544.5,163C 545.448,163.483 546.448,163.649 547.5,163.5C 547.833,166.5 549.5,168.167 552.5,168.5C 552.351,169.552 552.517,170.552 553,171.5C 555.167,173.667 557.333,175.833 559.5,178C 560.448,178.483 561.448,178.649 562.5,178.5C 563.71,181.552 565.544,184.219 568,186.5C 570.543,188.342 572.71,190.509 574.5,193C 575.448,193.483 576.448,193.649 577.5,193.5C 577.729,195.433 578.562,197.1 580,198.5C 582.263,201.375 585.096,203.375 588.5,204.5C 588.351,205.552 588.517,206.552 589,207.5C 600.667,218.833 612.333,230.167 624,241.5C 623.599,244.101 622.099,246.101 619.5,247.5C 618.571,248.689 618.238,250.022 618.5,251.5 Z M 333.5,178.5 C 336.001,178.511 336.168,179.178 334,180.5C 333.536,179.906 333.369,179.239 333.5,178.5 Z M 324.5,189.5 C 324.517,187.972 325.184,187.472 326.5,188C 325.956,188.717 325.289,189.217 324.5,189.5 Z M 323.5,190.5 C 323.217,191.289 322.717,191.956 322,192.5C 321.472,191.184 321.972,190.517 323.5,190.5 Z M 317.5,196.5 C 317.144,198.19 316.144,199.19 314.5,199.5C 314.856,197.81 315.856,196.81 317.5,196.5 Z M 314.5,199.5 C 314.144,201.19 313.144,202.19 311.5,202.5C 311.856,200.81 312.856,199.81 314.5,199.5 Z M 311.5,202.5 C 311.144,204.19 310.144,205.19 308.5,205.5C 308.856,203.81 309.856,202.81 311.5,202.5 Z M 320.5,217.5 C 320.066,214.834 321.066,213.667 323.5,214C 322.837,215.518 321.837,216.685 320.5,217.5 Z M 309.5,217.5 C 309.272,215.645 309.939,214.812 311.5,215C 310.934,215.995 310.267,216.828 309.5,217.5 Z M 308.5,218.5 C 308.5,220.5 307.5,221.5 305.5,221.5C 306.167,220.167 307.167,219.167 308.5,218.5 Z M 523.5,325.5 C 524.234,324.292 524.567,322.959 524.5,321.5C 525.675,321.719 526.675,321.386 527.5,320.5C 531.841,315.16 536.174,309.827 540.5,304.5C 542.167,302.833 543.833,301.167 545.5,299.5C 546.325,298.614 547.325,298.281 548.5,298.5C 549.044,296.42 549.878,294.42 551,292.5C 553.974,289.862 556.974,287.195 560,284.5C 560.49,283.207 560.657,281.873 560.5,280.5C 565.436,278.897 568.77,275.564 570.5,270.5C 568.956,268.554 566.956,268.054 564.5,269C 559.815,272.854 555.815,277.354 552.5,282.5C 551.372,283.262 550.205,283.929 549,284.5C 548.833,284.167 548.667,283.833 548.5,283.5C 550.454,279.718 552.954,276.385 556,273.5C 557.009,271.975 557.509,270.308 557.5,268.5C 555.801,268.34 554.134,268.506 552.5,269C 548.271,271.4 545.271,274.9 543.5,279.5C 538.502,284.001 534.002,289.001 530,294.5C 529.878,292.831 530.212,291.165 531,289.5C 537.085,283.595 541.252,276.595 543.5,268.5C 541.533,268.261 539.699,268.594 538,269.5C 534.229,274.722 530.229,279.722 526,284.5C 523.719,287.063 522.552,290.063 522.5,293.5C 520.678,293.831 519.011,294.498 517.5,295.5C 521.051,288.422 524.884,281.422 529,274.5C 529.495,272.527 529.662,270.527 529.5,268.5C 527.738,268.357 526.071,268.691 524.5,269.5C 521.415,274.672 518.081,279.672 514.5,284.5C 513.606,287.287 512.44,289.954 511,292.5C 508.909,294.428 507.076,296.428 505.5,298.5C 508.415,288.674 512.415,279.341 517.5,270.5C 515.977,268.717 513.977,268.051 511.5,268.5C 508.774,273.805 505.941,279.138 503,284.5C 501.921,287.063 501.421,289.729 501.5,292.5C 500.504,292.414 499.671,292.748 499,293.5C 497.313,296.78 495.48,299.78 493.5,302.5C 496.847,291.148 500.18,279.815 503.5,268.5C 501.533,268.261 499.699,268.594 498,269.5C 493.53,280.097 489.364,290.764 485.5,301.5C 484.697,304.022 483.364,306.022 481.5,307.5C 484.56,295.426 487.227,283.26 489.5,271C 488.615,268.843 486.948,268.01 484.5,268.5C 482.78,278.219 479.947,287.552 476,296.5C 475.667,299.167 475.333,301.833 475,304.5C 474.764,306.119 473.931,307.119 472.5,307.5C 473.144,296.249 474.477,285.083 476.5,274C 476.673,269.505 475.173,268.671 472,271.5C 471.505,273.473 471.338,275.473 471.5,277.5C 470.307,277.97 469.64,278.97 469.5,280.5C 467.062,291.952 464.729,303.285 462.5,314.5C 463.629,299.157 463.629,283.824 462.5,268.5C 458.241,268.102 456.408,270.102 457,274.5C 456.667,286.5 456.333,298.5 456,310.5C 455.012,313.424 454.346,316.424 454,319.5C 453.634,302.203 451.468,285.203 447.5,268.5C 446.5,268.5 445.5,268.5 444.5,268.5C 444.847,288.271 445.68,307.937 447,327.5C 443.479,308.025 439.646,288.692 435.5,269.5C 433.833,269.5 432.167,269.5 430.5,269.5C 432.176,286.406 435.009,303.072 439,319.5C 439.333,323.833 439.667,328.167 440,332.5C 443.514,346.719 446.848,361.052 450,375.5C 450.667,379.167 450.667,382.833 450,386.5C 439.6,344.497 429.434,302.497 419.5,260.5C 475.833,261.608 532.167,261.775 588.5,261C 568.271,281.471 548.271,302.137 528.5,323C 526.751,323.785 525.084,324.618 523.5,325.5 Z M 544.5,289.5 C 543.57,291.93 542.07,293.93 540,295.5C 539.251,294.365 539.417,293.365 540.5,292.5C 541.642,291.174 542.976,290.174 544.5,289.5 Z M 545.5,285.5 C 547.337,285.639 547.67,286.306 546.5,287.5C 545.702,287.043 545.369,286.376 545.5,285.5 Z M 515.5,297.5 C 516.773,298.077 516.773,298.743 515.5,299.5C 514.537,299.03 514.537,298.363 515.5,297.5 Z M 505.5,298.5 C 505.614,301.216 504.614,303.216 502.5,304.5C 502.386,301.784 503.386,299.784 505.5,298.5 Z M 512.5,301.5 C 514.646,301.696 514.812,302.696 513,304.5C 512.517,303.552 512.351,302.552 512.5,301.5 Z M 493.5,302.5 C 493.241,305.272 492.241,307.605 490.5,309.5C 490.552,306.654 491.552,304.32 493.5,302.5 Z M 522.5,302.5 C 523.688,304.496 523.021,305.329 520.5,305C 521.381,304.292 522.047,303.458 522.5,302.5 Z M 502.5,304.5 C 501.87,306.75 500.87,308.75 499.5,310.5C 499.386,307.784 500.386,305.784 502.5,304.5 Z M 510.5,305.5 C 511.713,306.497 511.546,307.497 510,308.5C 509.53,307.423 509.697,306.423 510.5,305.5 Z M 472.5,307.5 C 472.254,313.008 471.42,318.341 470,323.5C 469.832,318.828 470.166,314.161 471,309.5C 471.278,308.584 471.778,307.918 472.5,307.5 Z M 481.5,307.5 C 481.693,311.013 481.026,314.346 479.5,317.5C 479.167,317.333 478.833,317.167 478.5,317C 478.998,313.58 479.998,310.413 481.5,307.5 Z M 490.5,309.5 C 490.769,311.429 490.269,313.095 489,314.5C 488.123,312.326 488.623,310.659 490.5,309.5 Z M 499.5,310.5 C 499.013,311.473 498.513,312.473 498,313.5C 497.275,311.843 497.775,310.843 499.5,310.5 Z M 523.5,325.5 C 521.72,329.967 518.72,333.634 514.5,336.5C 512.598,340.674 509.598,343.674 505.5,345.5C 506.072,343.745 506.906,342.078 508,340.5C 512.753,334.912 517.919,329.912 523.5,325.5 Z M 505.5,345.5 C 504.833,346.833 503.833,347.833 502.5,348.5C 502.5,346.5 503.5,345.5 505.5,345.5 Z M 502.5,348.5 C 502.461,349.583 502.127,350.583 501.5,351.5C 497.377,355.079 493.71,359.079 490.5,363.5C 488.175,364.518 486.175,365.851 484.5,367.5C 485.44,365.388 486.606,363.388 488,361.5C 493.048,357.279 497.881,352.946 502.5,348.5 Z M 483.5,368.5 C 482.391,371.798 480.391,374.465 477.5,376.5C 476.417,375.635 476.251,374.635 477,373.5C 478.765,371.296 480.931,369.629 483.5,368.5 Z M 471.5,385.5 C 468.409,386.19 465.742,387.357 463.5,389C 465.444,385.55 468.111,383.05 471.5,381.5C 471.5,382.833 471.5,384.167 471.5,385.5 Z"/></g>
<g><path style="opacity:0.792" fill="#aba5a5" d="M 452.5,134.5 C 446.828,134.76 441.161,135.093 435.5,135.5C 441.1,133.535 446.767,133.202 452.5,134.5 Z"/></g>
<g><path style="opacity:0.941" fill="#efeeed" d="M 452.5,134.5 C 480.89,138.232 509.224,142.398 537.5,147C 539.608,147.36 541.608,148.027 543.5,149C 574.874,180.04 605.874,211.373 636.5,243C 574.459,306.041 512.125,368.708 449.5,431C 448.5,431.667 447.5,431.667 446.5,431C 383.667,372.666 321.333,313.833 259.5,254.5C 292.662,253.502 325.996,253.168 359.5,253.5C 370.167,253.5 380.833,253.5 391.5,253.5C 400.012,279.88 408.679,306.214 417.5,332.5C 417.869,334.993 417.203,335.66 415.5,334.5C 405.899,309.316 396.899,283.982 388.5,258.5C 370.5,258.5 352.5,258.5 334.5,258.5C 314.156,258.167 293.822,258.5 273.5,259.5C 273.624,260.107 273.957,260.44 274.5,260.5C 331.636,314.8 388.969,368.967 446.5,423C 447.167,423.667 447.833,423.667 448.5,423C 455.005,415.329 462.005,408.162 469.5,401.5C 519.5,352.167 569.167,302.5 618.5,252.5C 621.464,250.038 624.297,247.371 627,244.5C 627.667,243.5 627.667,242.5 627,241.5C 597.833,212.333 568.667,183.167 539.5,154C 508.359,149.045 477.193,144.211 446,139.5C 426.516,142.664 407.016,145.664 387.5,148.5C 383.84,148.159 380.507,148.825 377.5,150.5C 369.673,151.476 362.007,152.81 354.5,154.5C 354.423,153.25 353.756,152.417 352.5,152C 354.311,150.959 354.645,149.793 353.5,148.5C 355.562,147.224 357.896,146.39 360.5,146C 385.463,142.174 410.463,138.674 435.5,135.5C 441.161,135.093 446.828,134.76 452.5,134.5 Z M 523.5,325.5 C 524.234,324.292 524.567,322.959 524.5,321.5C 525.675,321.719 526.675,321.386 527.5,320.5C 531.841,315.16 536.174,309.827 540.5,304.5C 542.167,302.833 543.833,301.167 545.5,299.5C 546.325,298.614 547.325,298.281 548.5,298.5C 549.044,296.42 549.878,294.42 551,292.5C 553.974,289.862 556.974,287.195 560,284.5C 560.49,283.207 560.657,281.873 560.5,280.5C 565.436,278.897 568.77,275.564 570.5,270.5C 568.956,268.554 566.956,268.054 564.5,269C 559.815,272.854 555.815,277.354 552.5,282.5C 551.372,283.262 550.205,283.929 549,284.5C 548.833,284.167 548.667,283.833 548.5,283.5C 550.454,279.718 552.954,276.385 556,273.5C 557.009,271.975 557.509,270.308 557.5,268.5C 555.801,268.34 554.134,268.506 552.5,269C 548.271,271.4 545.271,274.9 543.5,279.5C 538.502,284.001 534.002,289.001 530,294.5C 529.878,292.831 530.212,291.165 531,289.5C 537.085,283.595 541.252,276.595 543.5,268.5C 541.533,268.261 539.699,268.594 538,269.5C 534.229,274.722 530.229,279.722 526,284.5C 523.719,287.063 522.552,290.063 522.5,293.5C 520.678,293.831 519.011,294.498 517.5,295.5C 521.051,288.422 524.884,281.422 529,274.5C 529.495,272.527 529.662,270.527 529.5,268.5C 527.738,268.357 526.071,268.691 524.5,269.5C 521.415,274.672 518.081,279.672 514.5,284.5C 513.606,287.287 512.44,289.954 511,292.5C 508.909,294.428 507.076,296.428 505.5,298.5C 508.415,288.674 512.415,279.341 517.5,270.5C 515.977,268.717 513.977,268.051 511.5,268.5C 508.774,273.805 505.941,279.138 503,284.5C 501.921,287.063 501.421,289.729 501.5,292.5C 500.504,292.414 499.671,292.748 499,293.5C 497.313,296.78 495.48,299.78 493.5,302.5C 496.847,291.148 500.18,279.815 503.5,268.5C 501.533,268.261 499.699,268.594 498,269.5C 493.53,280.097 489.364,290.764 485.5,301.5C 484.697,304.022 483.364,306.022 481.5,307.5C 484.56,295.426 487.227,283.26 489.5,271C 488.615,268.843 486.948,268.01 484.5,268.5C 482.78,278.219 479.947,287.552 476,296.5C 475.667,299.167 475.333,301.833 475,304.5C 474.764,306.119 473.931,307.119 472.5,307.5C 473.144,296.249 474.477,285.083 476.5,274C 476.673,269.505 475.173,268.671 472,271.5C 471.505,273.473 471.338,275.473 471.5,277.5C 470.307,277.97 469.64,278.97 469.5,280.5C 467.062,291.952 464.729,303.285 462.5,314.5C 463.629,299.157 463.629,283.824 462.5,268.5C 458.241,268.102 456.408,270.102 457,274.5C 456.667,286.5 456.333,298.5 456,310.5C 455.012,313.424 454.346,316.424 454,319.5C 453.634,302.203 451.468,285.203 447.5,268.5C 446.5,268.5 445.5,268.5 444.5,268.5C 444.847,288.271 445.68,307.937 447,327.5C 443.479,308.025 439.646,288.692 435.5,269.5C 433.833,269.5 432.167,269.5 430.5,269.5C 432.176,286.406 435.009,303.072 439,319.5C 439.333,323.833 439.667,328.167 440,332.5C 443.514,346.719 446.848,361.052 450,375.5C 450.667,379.167 450.667,382.833 450,386.5C 439.6,344.497 429.434,302.497 419.5,260.5C 475.833,261.608 532.167,261.775 588.5,261C 568.271,281.471 548.271,302.137 528.5,323C 526.751,323.785 525.084,324.618 523.5,325.5 Z M 544.5,289.5 C 542.976,290.174 541.642,291.174 540.5,292.5C 539.417,293.365 539.251,294.365 540,295.5C 542.07,293.93 543.57,291.93 544.5,289.5 Z M 545.5,285.5 C 545.369,286.376 545.702,287.043 546.5,287.5C 547.67,286.306 547.337,285.639 545.5,285.5 Z M 515.5,297.5 C 514.537,298.363 514.537,299.03 515.5,299.5C 516.773,298.743 516.773,298.077 515.5,297.5 Z M 505.5,298.5 C 505.614,301.216 504.614,303.216 502.5,304.5C 502.386,301.784 503.386,299.784 505.5,298.5 Z M 512.5,301.5 C 512.351,302.552 512.517,303.552 513,304.5C 514.812,302.696 514.646,301.696 512.5,301.5 Z M 493.5,302.5 C 493.241,305.272 492.241,307.605 490.5,309.5C 490.552,306.654 491.552,304.32 493.5,302.5 Z M 522.5,302.5 C 522.047,303.458 521.381,304.292 520.5,305C 523.021,305.329 523.688,304.496 522.5,302.5 Z M 502.5,304.5 C 501.87,306.75 500.87,308.75 499.5,310.5C 499.386,307.784 500.386,305.784 502.5,304.5 Z M 510.5,305.5 C 509.697,306.423 509.53,307.423 510,308.5C 511.546,307.497 511.713,306.497 510.5,305.5 Z M 472.5,307.5 C 471.778,307.918 471.278,308.584 471,309.5C 470.166,314.161 469.832,318.828 470,323.5C 471.42,318.341 472.254,313.008 472.5,307.5 Z M 481.5,307.5 C 479.998,310.413 478.998,313.58 478.5,317C 478.833,317.167 479.167,317.333 479.5,317.5C 481.026,314.346 481.693,311.013 481.5,307.5 Z M 490.5,309.5 C 488.623,310.659 488.123,312.326 489,314.5C 490.269,313.095 490.769,311.429 490.5,309.5 Z M 499.5,310.5 C 497.775,310.843 497.275,311.843 498,313.5C 498.513,312.473 499.013,311.473 499.5,310.5 Z M 523.5,325.5 C 521.72,329.967 518.72,333.634 514.5,336.5C 512.598,340.674 509.598,343.674 505.5,345.5C 506.072,343.745 506.906,342.078 508,340.5C 512.753,334.912 517.919,329.912 523.5,325.5 Z M 505.5,345.5 C 504.833,346.833 503.833,347.833 502.5,348.5C 502.5,346.5 503.5,345.5 505.5,345.5 Z M 502.5,348.5 C 502.461,349.583 502.127,350.583 501.5,351.5C 497.377,355.079 493.71,359.079 490.5,363.5C 488.175,364.518 486.175,365.851 484.5,367.5C 485.44,365.388 486.606,363.388 488,361.5C 493.048,357.279 497.881,352.946 502.5,348.5 Z M 483.5,368.5 C 480.931,369.629 478.765,371.296 477,373.5C 476.251,374.635 476.417,375.635 477.5,376.5C 480.391,374.465 482.391,371.798 483.5,368.5 Z M 471.5,385.5 C 471.5,384.167 471.5,382.833 471.5,381.5C 468.111,383.05 465.444,385.55 463.5,389C 465.742,387.357 468.409,386.19 471.5,385.5 Z"/></g>
<g><path style="opacity:0.932" fill="#f2f1f0" d="M 353.5,148.5 C 354.645,149.793 354.311,150.959 352.5,152C 353.756,152.417 354.423,153.25 354.5,154.5C 327.167,182.167 299.833,209.833 272.5,237.5C 271.5,237.833 270.833,238.5 270.5,239.5C 380.334,240.832 490.334,240.832 600.5,239.5C 600.376,238.893 600.043,238.56 599.5,238.5C 578.516,215.682 557.349,193.015 536,170.5C 527.631,181.245 518.797,191.578 509.5,201.5C 508.662,201.158 508.328,200.492 508.5,199.5C 517.012,186.473 526.012,173.807 535.5,161.5C 561.223,188.553 586.556,215.886 611.5,243.5C 593.356,245.163 575.023,246.163 556.5,246.5C 510.167,246.5 463.833,246.5 417.5,246.5C 363.833,245.833 310.167,245.167 256.5,244.5C 288.216,211.783 320.55,179.783 353.5,148.5 Z M 333.5,178.5 C 333.369,179.239 333.536,179.906 334,180.5C 336.168,179.178 336.001,178.511 333.5,178.5 Z M 324.5,189.5 C 325.289,189.217 325.956,188.717 326.5,188C 325.184,187.472 324.517,187.972 324.5,189.5 Z M 323.5,190.5 C 321.972,190.517 321.472,191.184 322,192.5C 322.717,191.956 323.217,191.289 323.5,190.5 Z M 317.5,196.5 C 317.144,198.19 316.144,199.19 314.5,199.5C 314.856,197.81 315.856,196.81 317.5,196.5 Z M 314.5,199.5 C 314.144,201.19 313.144,202.19 311.5,202.5C 311.856,200.81 312.856,199.81 314.5,199.5 Z M 311.5,202.5 C 311.144,204.19 310.144,205.19 308.5,205.5C 308.856,203.81 309.856,202.81 311.5,202.5 Z M 320.5,217.5 C 321.837,216.685 322.837,215.518 323.5,214C 321.066,213.667 320.066,214.834 320.5,217.5 Z M 309.5,217.5 C 310.267,216.828 310.934,215.995 311.5,215C 309.939,214.812 309.272,215.645 309.5,217.5 Z M 308.5,218.5 C 308.5,220.5 307.5,221.5 305.5,221.5C 306.167,220.167 307.167,219.167 308.5,218.5 Z"/></g>
<g><path style="opacity:0.447" fill="#5c575b" d="M 387.5,148.5 C 384.373,149.581 381.04,150.247 377.5,150.5C 380.507,148.825 383.84,148.159 387.5,148.5 Z"/></g>
<g><path style="opacity:0.81" fill="#8f8b86" d="M 379.5,178.5 C 378.833,178.5 378.5,178.833 378.5,179.5C 375.005,177.135 374.672,177.802 377.5,181.5C 376.833,181.5 376.5,181.833 376.5,182.5C 372.473,176.898 371.806,177.231 374.5,183.5C 373.662,183.842 373.328,184.508 373.5,185.5C 371.54,182.823 370.04,179.823 369,176.5C 368.31,175.262 367.81,175.262 367.5,176.5C 366.833,175.5 366.167,174.5 365.5,173.5C 364.732,172.737 364.232,171.737 364,170.5C 363.51,171.793 363.343,173.127 363.5,174.5C 363.167,174.5 362.833,174.5 362.5,174.5C 361.997,171.154 361.33,167.821 360.5,164.5C 359.897,169.169 358.564,173.502 356.5,177.5C 356.167,177.5 355.833,177.5 355.5,177.5C 356.96,174.296 357.46,170.962 357,167.5C 356.356,171.619 354.856,175.285 352.5,178.5C 352.565,178.062 352.399,177.728 352,177.5C 351.722,178.416 351.222,179.082 350.5,179.5C 350.5,178.833 350.167,178.5 349.5,178.5C 350.303,177.577 350.47,176.577 350,175.5C 348.595,176.731 347.429,178.064 346.5,179.5C 346.565,179.062 346.399,178.728 346,178.5C 344.951,180.618 343.451,182.284 341.5,183.5C 341.5,183.167 341.5,182.833 341.5,182.5C 341.672,181.508 341.338,180.842 340.5,180.5C 340.158,179.662 339.492,179.328 338.5,179.5C 344.88,171.952 352.046,165.286 360,159.5C 366.992,165.325 373.492,171.659 379.5,178.5 Z"/></g>
<g><path style="opacity:0.42" fill="#5f5757" d="M 362.5,174.5 C 362.5,175.5 362.5,176.5 362.5,177.5C 361.833,177.833 361.167,178.167 360.5,178.5C 360.408,171.992 359.742,171.992 358.5,178.5C 358.822,184.358 358.489,190.025 357.5,195.5C 357.821,189.974 357.488,184.64 356.5,179.5C 356.5,178.833 356.5,178.167 356.5,177.5C 358.564,173.502 359.897,169.169 360.5,164.5C 361.33,167.821 361.997,171.154 362.5,174.5 Z"/></g>
<g><path style="opacity:0.298" fill="#383331" d="M 365.5,173.5 C 366.008,177.197 366.674,180.864 367.5,184.5C 366.549,185.919 366.216,187.585 366.5,189.5C 365.193,184.684 364.193,179.684 363.5,174.5C 363.343,173.127 363.51,171.793 364,170.5C 364.232,171.737 364.732,172.737 365.5,173.5 Z"/></g>
<g><path style="opacity:0.363" fill="#a49d9a" d="M 360.5,178.5 C 360.825,185.687 360.491,192.687 359.5,199.5C 359.825,192.313 359.491,185.313 358.5,178.5C 359.742,171.992 360.408,171.992 360.5,178.5 Z"/></g>
<g><path style="opacity:0.412" fill="#c0beb8" d="M 365.5,173.5 C 366.167,174.5 366.833,175.5 367.5,176.5C 372.427,189.95 376.761,203.617 380.5,217.5C 380.672,218.492 380.338,219.158 379.5,219.5C 375.497,207.79 371.497,196.123 367.5,184.5C 366.674,180.864 366.008,177.197 365.5,173.5 Z"/></g>
<g><path style="opacity:0.651" fill="#babab2" d="M 377.5,181.5 C 387.57,195.296 397.403,209.296 407,223.5C 407.667,224.167 407.667,224.833 407,225.5C 395.841,211.84 385.674,197.507 376.5,182.5C 376.5,181.833 376.833,181.5 377.5,181.5 Z"/></g>
<g><path style="opacity:0.561" fill="#c3c2be" d="M 379.5,178.5 C 392.164,192.666 404.664,206.999 417,221.5C 417.667,222.167 417.667,222.833 417,223.5C 403.585,209.258 390.752,194.591 378.5,179.5C 378.5,178.833 378.833,178.5 379.5,178.5 Z"/></g>
<g><path style="opacity:0.694" fill="#c4c1bc" d="M 338.5,179.5 C 339.492,179.328 340.158,179.662 340.5,180.5C 324.84,196.327 309.34,212.327 294,228.5C 293.333,227.833 293.333,227.167 294,226.5C 308.378,210.418 323.211,194.752 338.5,179.5 Z"/></g>
<g><path style="opacity:0.604" fill="#cdcbc7" d="M 352.5,178.5 C 346.967,193.262 341.134,207.929 335,222.5C 334.808,219.053 335.475,215.72 337,212.5C 341.515,201.474 346.015,190.474 350.5,179.5C 351.222,179.082 351.722,178.416 352,177.5C 352.399,177.728 352.565,178.062 352.5,178.5 Z"/></g>
<g><path style="opacity:0.545" fill="#c8c6c1" d="M 341.5,182.5 C 341.5,182.833 341.5,183.167 341.5,183.5C 332.401,196.679 322.567,209.346 312,221.5C 311.833,221.167 311.667,220.833 311.5,220.5C 321.038,207.4 331.038,194.734 341.5,182.5 Z"/></g>
<g><path style="opacity:0.5" fill="#cbcac9" d="M 355.5,177.5 C 355.833,177.5 356.167,177.5 356.5,177.5C 356.5,178.167 356.5,178.833 356.5,179.5C 353.373,193.134 350.373,206.801 347.5,220.5C 346.662,220.158 346.328,219.492 346.5,218.5C 348.524,204.475 351.524,190.808 355.5,177.5 Z"/></g>
<g><path style="opacity:0.651" fill="#c2bfbb" d="M 349.5,178.5 C 340.181,195.137 330.348,211.471 320,227.5C 320.032,225.402 320.699,223.402 322,221.5C 329.926,207.308 338.093,193.308 346.5,179.5C 347.429,178.064 348.595,176.731 350,175.5C 350.47,176.577 350.303,177.577 349.5,178.5 Z"/></g>
<g><path style="opacity:0.48" fill="#d3d3d0" d="M 358.5,178.5 C 359.491,185.313 359.825,192.313 359.5,199.5C 359.287,206.174 358.954,212.841 358.5,219.5C 357.51,213.69 357.177,207.69 357.5,201.5C 357.5,199.5 357.5,197.5 357.5,195.5C 358.489,190.025 358.822,184.358 358.5,178.5 Z"/></g>
<g><path style="opacity:0.584" fill="#b4b2af" d="M 362.5,174.5 C 362.833,174.5 363.167,174.5 363.5,174.5C 364.193,179.684 365.193,184.684 366.5,189.5C 367.186,199.581 368.52,209.581 370.5,219.5C 370.167,220.833 369.833,222.167 369.5,223.5C 366.389,208.278 364.055,192.945 362.5,177.5C 362.5,176.5 362.5,175.5 362.5,174.5 Z"/></g>
<g><path style="opacity:0.537" fill="#b6b7ad" d="M 374.5,183.5 C 380.894,195.285 387.06,207.285 393,219.5C 393.667,220.5 393.667,221.5 393,222.5C 385.948,210.393 379.448,198.06 373.5,185.5C 373.328,184.508 373.662,183.842 374.5,183.5 Z"/></g>
<g><path style="opacity:0.569" fill="#cfcdcb" d="M 508.5,199.5 C 508.328,200.492 508.662,201.158 509.5,201.5C 503.621,210.225 497.121,218.559 490,226.5C 489.833,226.167 489.667,225.833 489.5,225.5C 495.855,216.766 502.188,208.099 508.5,199.5 Z"/></g>
<g><path style="opacity:0.247" fill="#5f6461" d="M 380.5,217.5 C 382.65,220.801 383.483,224.468 383,228.5C 381.727,225.511 380.561,222.511 379.5,219.5C 380.338,219.158 380.672,218.492 380.5,217.5 Z"/></g>
<g><path style="opacity:0.161" fill="#3a363f" d="M 357.5,201.5 C 357.177,207.69 357.51,213.69 358.5,219.5C 358.875,222.397 358.375,225.063 357,227.5C 356.176,218.657 356.343,209.99 357.5,201.5 Z"/></g>
<g><path style="opacity:0.165" fill="#535755" d="M 346.5,218.5 C 346.328,219.492 346.662,220.158 347.5,220.5C 346.362,223.719 345.529,227.053 345,230.5C 344.202,226.219 344.702,222.219 346.5,218.5 Z"/></g>
<g><path style="opacity:0.216" fill="#181816" d="M 272.5,237.5 C 367.5,238.167 462.5,238.833 557.5,239.5C 461.833,239.5 366.167,239.5 270.5,239.5C 270.833,238.5 271.5,237.833 272.5,237.5 Z"/></g>
<g><path style="opacity:0.41" fill="#9c9696" d="M 599.5,238.5 C 600.043,238.56 600.376,238.893 600.5,239.5C 490.334,240.832 380.334,240.832 270.5,239.5C 366.167,239.5 461.833,239.5 557.5,239.5C 571.677,239.829 585.677,239.496 599.5,238.5 Z"/></g>
<g><path style="opacity:0.341" fill="#6d676b" d="M 256.5,244.5 C 310.167,245.167 363.833,245.833 417.5,246.5C 363.496,246.833 309.496,246.5 255.5,245.5C 255.624,244.893 255.957,244.56 256.5,244.5 Z"/></g>
<g><path style="opacity:0.375" fill="#676265" d="M 611.5,243.5 C 612.404,244.209 612.737,245.209 612.5,246.5C 593.833,246.5 575.167,246.5 556.5,246.5C 575.023,246.163 593.356,245.163 611.5,243.5 Z"/></g>
<g><path style="opacity:0.402" fill="#beb7b7" d="M 359.5,253.5 C 325.996,253.168 292.662,253.502 259.5,254.5C 258.957,254.44 258.624,254.107 258.5,253.5C 292.331,252.17 325.998,252.17 359.5,253.5 Z"/></g>
<g><path style="opacity:0.578" fill="#585257" d="M 334.5,258.5 C 314.5,259.167 294.5,259.833 274.5,260.5C 273.957,260.44 273.624,260.107 273.5,259.5C 293.822,258.5 314.156,258.167 334.5,258.5 Z"/></g>
<g><path style="opacity:0.067" fill="#100e0e" d="M 409.5,251.5 C 475.833,251.5 542.167,251.5 608.5,251.5C 608.5,253.167 608.5,254.833 608.5,256.5C 607.5,256.5 606.5,256.5 605.5,256.5C 605.5,257.5 605.5,258.5 605.5,259.5C 604.325,259.281 603.325,259.614 602.5,260.5C 599.868,265.132 596.201,268.799 591.5,271.5C 590.684,273.287 589.684,274.954 588.5,276.5C 586.146,277.998 583.813,279.332 581.5,280.5C 581.579,281.93 581.246,283.264 580.5,284.5C 578.622,286.874 576.288,288.708 573.5,290C 571.69,292.644 569.69,295.144 567.5,297.5C 565.146,298.998 562.813,300.332 560.5,301.5C 560.579,302.93 560.246,304.264 559.5,305.5C 557.417,308.246 554.75,310.246 551.5,311.5C 549.167,316.5 545.5,320.167 540.5,322.5C 538.471,326.53 535.471,329.696 531.5,332C 530.707,333.085 530.04,334.252 529.5,335.5C 507.719,357.404 485.719,379.071 463.5,400.5C 462.167,401.167 460.833,401.833 459.5,402.5C 458.119,402 457.453,401 457.5,399.5C 459.507,396.579 461.007,393.579 462,390.5C 459.603,392.782 456.769,394.116 453.5,394.5C 453.02,397.102 453.02,401.769 453.5,408.5C 452.5,408.5 451.5,408.5 450.5,408.5C 445.535,395.212 441.702,381.545 439,367.5C 434.755,356.522 431.755,345.189 430,333.5C 424.604,319.633 420.604,305.3 418,290.5C 415.751,282.419 413.084,274.419 410,266.5C 409.73,262.627 409.23,258.794 408.5,255C 408.989,253.862 409.322,252.695 409.5,251.5 Z M 523.5,325.5 C 524.234,324.292 524.567,322.959 524.5,321.5C 525.675,321.719 526.675,321.386 527.5,320.5C 531.841,315.16 536.174,309.827 540.5,304.5C 542.167,302.833 543.833,301.167 545.5,299.5C 546.325,298.614 547.325,298.281 548.5,298.5C 549.044,296.42 549.878,294.42 551,292.5C 553.974,289.862 556.974,287.195 560,284.5C 560.49,283.207 560.657,281.873 560.5,280.5C 565.436,278.897 568.77,275.564 570.5,270.5C 568.956,268.554 566.956,268.054 564.5,269C 559.815,272.854 555.815,277.354 552.5,282.5C 551.372,283.262 550.205,283.929 549,284.5C 548.833,284.167 548.667,283.833 548.5,283.5C 550.454,279.718 552.954,276.385 556,273.5C 557.009,271.975 557.509,270.308 557.5,268.5C 555.801,268.34 554.134,268.506 552.5,269C 548.271,271.4 545.271,274.9 543.5,279.5C 538.502,284.001 534.002,289.001 530,294.5C 529.878,292.831 530.212,291.165 531,289.5C 537.085,283.595 541.252,276.595 543.5,268.5C 541.533,268.261 539.699,268.594 538,269.5C 534.229,274.722 530.229,279.722 526,284.5C 523.719,287.063 522.552,290.063 522.5,293.5C 520.678,293.831 519.011,294.498 517.5,295.5C 521.051,288.422 524.884,281.422 529,274.5C 529.495,272.527 529.662,270.527 529.5,268.5C 527.738,268.357 526.071,268.691 524.5,269.5C 521.415,274.672 518.081,279.672 514.5,284.5C 513.606,287.287 512.44,289.954 511,292.5C 508.909,294.428 507.076,296.428 505.5,298.5C 508.415,288.674 512.415,279.341 517.5,270.5C 515.977,268.717 513.977,268.051 511.5,268.5C 508.774,273.805 505.941,279.138 503,284.5C 501.921,287.063 501.421,289.729 501.5,292.5C 500.504,292.414 499.671,292.748 499,293.5C 497.313,296.78 495.48,299.78 493.5,302.5C 496.847,291.148 500.18,279.815 503.5,268.5C 501.533,268.261 499.699,268.594 498,269.5C 493.53,280.097 489.364,290.764 485.5,301.5C 484.697,304.022 483.364,306.022 481.5,307.5C 484.56,295.426 487.227,283.26 489.5,271C 488.615,268.843 486.948,268.01 484.5,268.5C 482.78,278.219 479.947,287.552 476,296.5C 475.667,299.167 475.333,301.833 475,304.5C 474.764,306.119 473.931,307.119 472.5,307.5C 473.144,296.249 474.477,285.083 476.5,274C 476.673,269.505 475.173,268.671 472,271.5C 471.505,273.473 471.338,275.473 471.5,277.5C 470.307,277.97 469.64,278.97 469.5,280.5C 467.062,291.952 464.729,303.285 462.5,314.5C 463.629,299.157 463.629,283.824 462.5,268.5C 458.241,268.102 456.408,270.102 457,274.5C 456.667,286.5 456.333,298.5 456,310.5C 455.012,313.424 454.346,316.424 454,319.5C 453.634,302.203 451.468,285.203 447.5,268.5C 446.5,268.5 445.5,268.5 444.5,268.5C 444.847,288.271 445.68,307.937 447,327.5C 443.479,308.025 439.646,288.692 435.5,269.5C 433.833,269.5 432.167,269.5 430.5,269.5C 432.176,286.406 435.009,303.072 439,319.5C 439.333,323.833 439.667,328.167 440,332.5C 443.514,346.719 446.848,361.052 450,375.5C 450.667,379.167 450.667,382.833 450,386.5C 439.6,344.497 429.434,302.497 419.5,260.5C 475.833,261.608 532.167,261.775 588.5,261C 568.271,281.471 548.271,302.137 528.5,323C 526.751,323.785 525.084,324.618 523.5,325.5 Z M 544.5,289.5 C 542.976,290.174 541.642,291.174 540.5,292.5C 539.417,293.365 539.251,294.365 540,295.5C 542.07,293.93 543.57,291.93 544.5,289.5 Z M 545.5,285.5 C 545.369,286.376 545.702,287.043 546.5,287.5C 547.67,286.306 547.337,285.639 545.5,285.5 Z M 515.5,297.5 C 514.537,298.363 514.537,299.03 515.5,299.5C 516.773,298.743 516.773,298.077 515.5,297.5 Z M 505.5,298.5 C 505.614,301.216 504.614,303.216 502.5,304.5C 502.386,301.784 503.386,299.784 505.5,298.5 Z M 512.5,301.5 C 512.351,302.552 512.517,303.552 513,304.5C 514.812,302.696 514.646,301.696 512.5,301.5 Z M 493.5,302.5 C 493.241,305.272 492.241,307.605 490.5,309.5C 490.552,306.654 491.552,304.32 493.5,302.5 Z M 522.5,302.5 C 522.047,303.458 521.381,304.292 520.5,305C 523.021,305.329 523.688,304.496 522.5,302.5 Z M 502.5,304.5 C 501.87,306.75 500.87,308.75 499.5,310.5C 499.386,307.784 500.386,305.784 502.5,304.5 Z M 510.5,305.5 C 509.697,306.423 509.53,307.423 510,308.5C 511.546,307.497 511.713,306.497 510.5,305.5 Z M 472.5,307.5 C 471.778,307.918 471.278,308.584 471,309.5C 470.166,314.161 469.832,318.828 470,323.5C 471.42,318.341 472.254,313.008 472.5,307.5 Z M 481.5,307.5 C 479.998,310.413 478.998,313.58 478.5,317C 478.833,317.167 479.167,317.333 479.5,317.5C 481.026,314.346 481.693,311.013 481.5,307.5 Z M 490.5,309.5 C 488.623,310.659 488.123,312.326 489,314.5C 490.269,313.095 490.769,311.429 490.5,309.5 Z M 499.5,310.5 C 497.775,310.843 497.275,311.843 498,313.5C 498.513,312.473 499.013,311.473 499.5,310.5 Z M 523.5,325.5 C 521.72,329.967 518.72,333.634 514.5,336.5C 512.598,340.674 509.598,343.674 505.5,345.5C 506.072,343.745 506.906,342.078 508,340.5C 512.753,334.912 517.919,329.912 523.5,325.5 Z M 505.5,345.5 C 504.833,346.833 503.833,347.833 502.5,348.5C 502.5,346.5 503.5,345.5 505.5,345.5 Z M 502.5,348.5 C 502.461,349.583 502.127,350.583 501.5,351.5C 497.377,355.079 493.71,359.079 490.5,363.5C 488.175,364.518 486.175,365.851 484.5,367.5C 485.44,365.388 486.606,363.388 488,361.5C 493.048,357.279 497.881,352.946 502.5,348.5 Z M 483.5,368.5 C 480.931,369.629 478.765,371.296 477,373.5C 476.251,374.635 476.417,375.635 477.5,376.5C 480.391,374.465 482.391,371.798 483.5,368.5 Z M 471.5,385.5 C 471.5,384.167 471.5,382.833 471.5,381.5C 468.111,383.05 465.444,385.55 463.5,389C 465.742,387.357 468.409,386.19 471.5,385.5 Z"/></g>
<g><path style="opacity:0.073" fill="#110f0f" d="M 481.5,307.5 C 483.364,306.022 484.697,304.022 485.5,301.5C 489.364,290.764 493.53,280.097 498,269.5C 499.699,268.594 501.533,268.261 503.5,268.5C 500.18,279.815 496.847,291.148 493.5,302.5C 495.48,299.78 497.313,296.78 499,293.5C 499.671,292.748 500.504,292.414 501.5,292.5C 491.514,313.807 481.514,335.14 471.5,356.5C 470.833,356.5 470.5,356.167 470.5,355.5C 478.324,331.856 486.824,308.523 496,285.5C 497.116,282.18 497.783,278.847 498,275.5C 486.815,303.219 476.315,331.219 466.5,359.5C 465.833,359.5 465.5,359.167 465.5,358.5C 470.751,337.917 475.751,317.25 480.5,296.5C 483.246,290.178 484.746,283.511 485,276.5C 482.696,282.717 480.863,289.051 479.5,295.5C 473.202,317.358 467.536,339.358 462.5,361.5C 461.549,360.081 461.216,358.415 461.5,356.5C 465.474,334.986 468.474,313.32 470.5,291.5C 472.393,285.749 473.226,279.749 473,273.5C 472.79,275.058 472.29,276.391 471.5,277.5C 471.338,275.473 471.505,273.473 472,271.5C 475.173,268.671 476.673,269.505 476.5,274C 474.477,285.083 473.144,296.249 472.5,307.5C 473.931,307.119 474.764,306.119 475,304.5C 475.333,301.833 475.667,299.167 476,296.5C 479.947,287.552 482.78,278.219 484.5,268.5C 486.948,268.01 488.615,268.843 489.5,271C 487.227,283.26 484.56,295.426 481.5,307.5 Z M 493.5,302.5 C 493.241,305.272 492.241,307.605 490.5,309.5C 490.552,306.654 491.552,304.32 493.5,302.5 Z M 472.5,307.5 C 471.778,307.918 471.278,308.584 471,309.5C 470.166,314.161 469.832,318.828 470,323.5C 471.42,318.341 472.254,313.008 472.5,307.5 Z M 481.5,307.5 C 479.998,310.413 478.998,313.58 478.5,317C 478.833,317.167 479.167,317.333 479.5,317.5C 481.026,314.346 481.693,311.013 481.5,307.5 Z M 490.5,309.5 C 488.623,310.659 488.123,312.326 489,314.5C 490.269,313.095 490.769,311.429 490.5,309.5 Z"/></g>
<g><path style="opacity:0.561" fill="#969990" d="M 480.5,296.5 C 480.5,295.833 480.167,295.5 479.5,295.5C 480.863,289.051 482.696,282.717 485,276.5C 484.746,283.511 483.246,290.178 480.5,296.5 Z"/></g>
<g><path style="opacity:0.525" fill="#6d706d" d="M 470.5,291.5 C 470.5,290.833 470.167,290.5 469.5,290.5C 469.652,286.076 470.319,281.743 471.5,277.5C 472.29,276.391 472.79,275.058 473,273.5C 473.226,279.749 472.393,285.749 470.5,291.5 Z"/></g>
<g><path style="opacity:0.347" fill="#545358" d="M 459.5,301.5 C 459.822,295.642 459.489,289.975 458.5,284.5C 458.305,280.085 458.805,275.751 460,271.5C 460.825,281.675 460.658,291.675 459.5,301.5 Z"/></g>
<g><path style="opacity:0.329" fill="#575a5b" d="M 449.5,295.5 C 448.833,293.5 448.167,291.5 447.5,289.5C 446.194,286.313 446.194,282.98 447.5,279.5C 448.678,284.772 449.345,290.105 449.5,295.5 Z"/></g>
<g><path style="opacity:0.302" fill="#55595b" d="M 437.5,289.5 C 437.167,289.5 436.833,289.5 436.5,289.5C 434.076,284.523 433.242,279.19 434,273.5C 435.74,278.7 436.907,284.034 437.5,289.5 Z"/></g>
<g><path style="opacity:0.901" fill="#f4f2f1" d="M 461.5,253.5 C 509.512,252.838 557.178,253.505 604.5,255.5C 594.76,264.91 585.093,274.243 575.5,283.5C 574.77,281.994 574.437,280.66 574.5,279.5C 580.131,272.202 586.464,265.535 593.5,259.5C 594.043,259.44 594.376,259.107 594.5,258.5C 577.179,257.5 559.846,257.167 542.5,257.5C 500.167,257.5 457.833,257.5 415.5,257.5C 415.263,258.791 415.596,259.791 416.5,260.5C 424.137,289.353 431.137,318.353 437.5,347.5C 437.672,348.492 437.338,349.158 436.5,349.5C 427.224,317.672 418.558,285.672 410.5,253.5C 427.5,253.5 444.5,253.5 461.5,253.5 Z"/></g>
<g><path style="opacity:0.251" fill="#5c5b59" d="M 533.5,280.5 C 534.48,277.884 535.98,275.551 538,273.5C 537.546,276.386 536.046,278.719 533.5,280.5 Z"/></g>
<g><path style="opacity:0.416" fill="#7b777b" d="M 542.5,258.5 C 542.5,258.167 542.5,257.833 542.5,257.5C 559.846,257.167 577.179,257.5 594.5,258.5C 594.376,259.107 594.043,259.44 593.5,259.5C 576.675,258.503 559.675,258.17 542.5,258.5 Z"/></g>
<g><path style="opacity:0.436" fill="#938d91" d="M 542.5,257.5 C 542.5,257.833 542.5,258.167 542.5,258.5C 500.153,257.839 458.153,258.505 416.5,260.5C 415.596,259.791 415.263,258.791 415.5,257.5C 457.833,257.5 500.167,257.5 542.5,257.5 Z"/></g>
<g><path style="opacity:0.227" fill="#514e4b" d="M 461.5,253.5 C 509.33,252.501 557.33,252.168 605.5,252.5C 605.737,253.791 605.404,254.791 604.5,255.5C 557.178,253.505 509.512,252.838 461.5,253.5 Z"/></g>
<g><path style="opacity:0.096" fill="#181716" d="M 618.5,251.5 C 618.5,251.833 618.5,252.167 618.5,252.5C 569.167,302.5 519.5,352.167 469.5,401.5C 469.5,400.833 469.167,400.5 468.5,400.5C 468.369,399.761 468.536,399.094 469,398.5C 500.781,366.596 532.781,334.93 565,303.5C 566.438,302.1 567.271,300.433 567.5,298.5C 570.304,296.595 573.304,294.929 576.5,293.5C 576.585,291.071 577.585,289.071 579.5,287.5C 584.956,283.212 589.956,278.379 594.5,273C 595.448,272.517 596.448,272.351 597.5,272.5C 597.351,271.448 597.517,270.448 598,269.5C 602.071,265.599 605.904,261.599 609.5,257.5C 611.65,255.851 613.65,254.018 615.5,252C 616.448,251.517 617.448,251.351 618.5,251.5 Z"/></g>
<g><path style="opacity:0.643" fill="#c2c5c2" d="M 447.5,289.5 C 448.167,291.5 448.833,293.5 449.5,295.5C 449.916,300.493 450.249,305.493 450.5,310.5C 450.819,315.363 450.486,320.03 449.5,324.5C 448.518,312.879 447.851,301.212 447.5,289.5 Z"/></g>
<g><path style="opacity:0.6" fill="#c0c0bd" d="M 479.5,295.5 C 480.167,295.5 480.5,295.833 480.5,296.5C 475.751,317.25 470.751,337.917 465.5,358.5C 464.512,361.076 463.512,363.743 462.5,366.5C 461.28,364.95 461.28,363.284 462.5,361.5C 467.536,339.358 473.202,317.358 479.5,295.5 Z"/></g>
<g><path style="opacity:0.569" fill="#c6c4c1" d="M 476.5,358.5 C 475.685,359.429 474.852,360.429 474,361.5C 473.601,361.272 473.435,360.938 473.5,360.5C 488.899,332.7 505.066,305.366 522,278.5C 507.646,305.532 492.479,332.198 476.5,358.5 Z"/></g>
<g><path style="opacity:0.471" fill="#c8c7c3" d="M 533.5,280.5 C 518.253,304.656 502.253,328.323 485.5,351.5C 483.018,354.429 480.518,357.429 478,360.5C 477.601,360.272 477.435,359.938 477.5,359.5C 495.422,332.588 514.089,306.255 533.5,280.5 Z"/></g>
<g><path style="opacity:0.635" fill="#d3d2d0" d="M 490.5,355.5 C 489.833,355.5 489.5,355.167 489.5,354.5C 513.057,327.103 537.557,300.437 563,274.5C 563.667,275.167 563.667,275.833 563,276.5C 538.826,302.865 514.659,329.199 490.5,355.5 Z"/></g>
<g><path style="opacity:0.71" fill="#bebebb" d="M 469.5,290.5 C 470.167,290.5 470.5,290.833 470.5,291.5C 468.474,313.32 465.474,334.986 461.5,356.5C 460.539,354.735 460.205,352.735 460.5,350.5C 463.173,330.447 466.173,310.447 469.5,290.5 Z"/></g>
<g><path style="opacity:0.833" fill="#dedddb" d="M 574.5,279.5 C 574.437,280.66 574.77,281.994 575.5,283.5C 543.608,317.392 510.608,350.392 476.5,382.5C 476.167,382.5 475.833,382.5 475.5,382.5C 507.49,347.177 540.49,312.843 574.5,279.5 Z"/></g>
<g><path style="opacity:0.669" fill="#928f90" d="M 450.5,310.5 C 451.513,317.989 452.18,325.656 452.5,333.5C 451.691,331.708 451.191,329.708 451,327.5C 450.502,330.817 450.335,334.15 450.5,337.5C 449.515,333.366 449.182,329.032 449.5,324.5C 450.486,320.03 450.819,315.363 450.5,310.5 Z"/></g>
<g><path style="opacity:0.533" fill="#c3c0be" d="M 471.5,360.5 C 470.833,360.5 470.5,360.167 470.5,359.5C 470.557,358.391 470.89,357.391 471.5,356.5C 481.514,335.14 491.514,313.807 501.5,292.5C 504.892,286.72 508.059,280.72 511,274.5C 511.654,273.304 512.154,273.304 512.5,274.5C 498.874,303.144 485.207,331.811 471.5,360.5 Z"/></g>
<g><path style="opacity:0.704" fill="#d5d4cf" d="M 458.5,284.5 C 459.489,289.975 459.822,295.642 459.5,301.5C 459.308,317.525 458.642,333.525 457.5,349.5C 456.523,346.713 456.19,343.713 456.5,340.5C 457.013,321.827 457.68,303.16 458.5,284.5 Z"/></g>
<g><path style="opacity:0.592" fill="#c6c4c1" d="M 486.5,355.5 C 485.637,356.463 484.97,356.463 484.5,355.5C 485.193,354.482 485.859,353.482 486.5,352.5C 506.38,327.108 526.88,302.108 548,277.5C 548.167,277.833 548.333,278.167 548.5,278.5C 528.065,304.38 507.398,330.047 486.5,355.5 Z"/></g>
<g><path style="opacity:0.545" fill="#c0bdbc" d="M 452.5,333.5 C 452.483,342.849 452.817,352.182 453.5,361.5C 453.969,366.986 453.636,370.319 452.5,371.5C 452.364,361.646 451.698,351.979 450.5,342.5C 450.5,340.833 450.5,339.167 450.5,337.5C 450.335,334.15 450.502,330.817 451,327.5C 451.191,329.708 451.691,331.708 452.5,333.5 Z"/></g>
<g><path style="opacity:0.592" fill="#c7c8c4" d="M 417.5,332.5 C 420.871,340.942 423.871,349.609 426.5,358.5C 426.737,359.791 426.404,360.791 425.5,361.5C 422.426,352.361 419.092,343.361 415.5,334.5C 417.203,335.66 417.869,334.993 417.5,332.5 Z"/></g>
<g><path style="opacity:0.541" fill="#999595" d="M 456.5,340.5 C 456.19,343.713 456.523,346.713 457.5,349.5C 457.5,353.833 457.5,358.167 457.5,362.5C 457.666,366.846 457.499,371.179 457,375.5C 456.809,373.292 456.309,371.292 455.5,369.5C 455.173,359.652 455.506,349.986 456.5,340.5 Z"/></g>
<g><path style="opacity:0.58" fill="#b7b5b3" d="M 470.5,355.5 C 469.065,357.598 467.898,359.931 467,362.5C 466.346,363.696 465.846,363.696 465.5,362.5C 466.127,361.583 466.461,360.583 466.5,359.5C 476.315,331.219 486.815,303.219 498,275.5C 497.783,278.847 497.116,282.18 496,285.5C 486.824,308.523 478.324,331.856 470.5,355.5 Z"/></g>
<g><path style="opacity:0.551" fill="#b2b0b0" d="M 436.5,289.5 C 436.833,289.5 437.167,289.5 437.5,289.5C 441.636,310.844 445.636,332.177 449.5,353.5C 450.164,357.823 450.831,362.157 451.5,366.5C 451.489,368.045 451.156,369.378 450.5,370.5C 445.059,343.629 440.392,316.629 436.5,289.5 Z"/></g>
<g><path style="opacity:0.718" fill="#b5b9b7" d="M 437.5,347.5 C 441.12,358.904 444.12,370.571 446.5,382.5C 446.672,383.492 446.338,384.158 445.5,384.5C 442.343,372.874 439.343,361.207 436.5,349.5C 437.338,349.158 437.672,348.492 437.5,347.5 Z"/></g>
<g><path style="opacity:0.447" fill="#443c3b" d="M 450.5,342.5 C 451.698,351.979 452.364,361.646 452.5,371.5C 452.167,371.5 451.833,371.5 451.5,371.5C 450.833,371.5 450.5,371.167 450.5,370.5C 451.156,369.378 451.489,368.045 451.5,366.5C 450.831,362.157 450.164,357.823 449.5,353.5C 450.482,350.038 450.815,346.371 450.5,342.5 Z"/></g>
<g><path style="opacity:0.558" fill="#7a7974" d="M 460.5,350.5 C 460.205,352.735 460.539,354.735 461.5,356.5C 461.216,358.415 461.549,360.081 462.5,361.5C 461.28,363.284 461.28,364.95 462.5,366.5C 463.15,366.804 463.817,367.137 464.5,367.5C 466.941,365.074 468.941,362.407 470.5,359.5C 470.5,360.167 470.833,360.5 471.5,360.5C 471.938,361.506 472.604,361.506 473.5,360.5C 473.435,360.938 473.601,361.272 474,361.5C 474.852,360.429 475.685,359.429 476.5,358.5C 476.5,359.167 476.833,359.5 477.5,359.5C 477.435,359.938 477.601,360.272 478,360.5C 480.518,357.429 483.018,354.429 485.5,351.5C 485.5,352.167 485.833,352.5 486.5,352.5C 485.859,353.482 485.193,354.482 484.5,355.5C 484.97,356.463 485.637,356.463 486.5,355.5C 486.5,356.167 486.833,356.5 487.5,356.5C 482.009,362.491 476.342,368.325 470.5,374C 467.549,374.096 464.882,374.929 462.5,376.5C 461.833,375.833 461.167,375.167 460.5,374.5C 459.5,376.5 458.5,378.5 457.5,380.5C 456.833,379.167 456.167,377.833 455.5,376.5C 454.818,377.243 454.151,377.909 453.5,378.5C 452.076,376.485 451.41,374.152 451.5,371.5C 451.833,371.5 452.167,371.5 452.5,371.5C 453.636,370.319 453.969,366.986 453.5,361.5C 454.082,364.763 454.748,367.43 455.5,369.5C 456.309,371.292 456.809,373.292 457,375.5C 457.499,371.179 457.666,366.846 457.5,362.5C 458.823,358.571 459.823,354.571 460.5,350.5 Z"/></g>
<g><path style="opacity:0.58" fill="#5c5655" d="M 470.5,355.5 C 470.5,356.167 470.833,356.5 471.5,356.5C 470.89,357.391 470.557,358.391 470.5,359.5C 468.941,362.407 466.941,365.074 464.5,367.5C 463.817,367.137 463.15,366.804 462.5,366.5C 463.512,363.743 464.512,361.076 465.5,358.5C 465.5,359.167 465.833,359.5 466.5,359.5C 466.461,360.583 466.127,361.583 465.5,362.5C 465.846,363.696 466.346,363.696 467,362.5C 467.898,359.931 469.065,357.598 470.5,355.5 Z"/></g>
<g><path style="opacity:0.471" fill="#909290" d="M 426.5,358.5 C 430.204,367.943 433.538,377.61 436.5,387.5C 436.672,388.492 436.338,389.158 435.5,389.5C 432.17,380.171 428.836,370.838 425.5,361.5C 426.404,360.791 426.737,359.791 426.5,358.5 Z"/></g>
<g><path style="opacity:0.861" fill="#979893" d="M 489.5,354.5 C 489.5,355.167 489.833,355.5 490.5,355.5C 479.554,367.782 468.221,379.782 456.5,391.5C 455.914,391.291 455.414,390.957 455,390.5C 453.985,386.56 453.485,382.56 453.5,378.5C 454.151,377.909 454.818,377.243 455.5,376.5C 456.167,377.833 456.833,379.167 457.5,380.5C 458.5,378.5 459.5,376.5 460.5,374.5C 461.167,375.167 461.833,375.833 462.5,376.5C 464.882,374.929 467.549,374.096 470.5,374C 476.342,368.325 482.009,362.491 487.5,356.5C 487.833,355.5 488.5,354.833 489.5,354.5 Z"/></g>
<g><path style="opacity:0.349" fill="#8e8982" d="M 475.5,382.5 C 475.833,382.5 476.167,382.5 476.5,382.5C 473.814,386.373 470.481,389.206 466.5,391C 468.373,389.296 470.04,387.463 471.5,385.5C 472.833,384.5 474.167,383.5 475.5,382.5 Z"/></g>
<g><path style="opacity:0.388" fill="#484e4f" d="M 446.5,382.5 C 448.325,387.99 449.992,393.657 451.5,399.5C 450.833,402.167 450.167,402.167 449.5,399.5C 448.16,394.482 446.826,389.482 445.5,384.5C 446.338,384.158 446.672,383.492 446.5,382.5 Z"/></g>
<g><path style="opacity:0.298" fill="#393e3e" d="M 436.5,387.5 C 438.638,393.014 440.638,398.681 442.5,404.5C 442.154,405.696 441.654,405.696 441,404.5C 439.15,399.475 437.317,394.475 435.5,389.5C 436.338,389.158 436.672,388.492 436.5,387.5 Z"/></g>
<g><path style="opacity:0.064" fill="#131212" d="M 274.5,485.5 C 297.033,484.348 304.699,494.348 297.5,515.5C 288.099,525.364 277.766,526.531 266.5,519C 265.667,517.5 264.5,516.333 263,515.5C 262.64,511.727 261.807,508.061 260.5,504.5C 261.817,500.563 262.817,496.563 263.5,492.5C 265.167,491.5 266.5,490.167 267.5,488.5C 270.127,487.942 272.46,486.942 274.5,485.5 Z M 276.5,495.5 C 287.044,496.379 287.044,497.379 276.5,498.5C 275.913,497.767 275.913,496.767 276.5,495.5 Z M 275.5,509.5 C 278.413,510.241 281.413,510.741 284.5,511C 280.786,515.494 277.786,514.994 275.5,509.5 Z"/></g>
<g><path style="opacity:0.062" fill="#100f0f" d="M 577.5,485.5 C 583.176,485.334 588.843,485.501 594.5,486C 596.076,488.951 596.743,492.117 596.5,495.5C 591.489,495.334 586.489,495.501 581.5,496C 584.647,496.946 587.647,498.113 590.5,499.5C 590.5,500.5 590.5,501.5 590.5,502.5C 597.517,503.266 600.35,507.266 599,514.5C 596.075,519.887 591.575,523.22 585.5,524.5C 580.786,522.357 575.786,521.357 570.5,521.5C 570.653,518.423 569.986,515.589 568.5,513C 568.585,511.893 568.919,510.893 569.5,510C 574.318,509.917 578.651,511.417 582.5,514.5C 583.5,514.167 584.167,513.5 584.5,512.5C 580.08,509.416 575.413,506.749 570.5,504.5C 568.819,500.676 568.319,496.676 569,492.5C 571.257,489.312 574.09,486.978 577.5,485.5 Z"/></g>
<g><path style="opacity:0.059" fill="#111010" d="M 684.5,485.5 C 691.186,484.828 697.52,485.828 703.5,488.5C 712.572,496.841 713.739,506.174 707,516.5C 697.694,525.623 687.861,526.457 677.5,519C 671.512,512.423 669.845,504.757 672.5,496C 673.67,494.413 674.67,492.747 675.5,491C 678.554,489.145 681.554,487.312 684.5,485.5 Z M 695.5,498.5 C 691.942,497.482 688.608,497.482 685.5,498.5C 685.833,497.833 686.167,497.167 686.5,496.5C 689.428,495.516 692.428,495.183 695.5,495.5C 695.5,496.5 695.5,497.5 695.5,498.5 Z M 697.5,501.5 C 698.694,507.436 696.36,511.769 690.5,514.5C 689.193,513.184 687.693,512.184 686,511.5C 685.333,510.167 685.333,508.833 686,507.5C 686.483,508.448 686.649,509.448 686.5,510.5C 694.117,512.211 697.784,509.211 697.5,501.5 Z"/></g>
<g><path style="opacity:0.072" fill="#100e0f" d="M 309.5,487.5 C 318.903,483.802 325.07,486.802 328,496.5C 328.778,493.725 328.278,491.225 326.5,489C 326.833,488.5 327.167,488 327.5,487.5C 330.967,486.212 334.3,486.212 337.5,487.5C 334.753,487.187 332.086,487.52 329.5,488.5C 329.624,489.107 329.957,489.44 330.5,489.5C 331.65,494.316 331.816,499.316 331,504.5C 327.691,498.706 323.858,493.373 319.5,488.5C 316.375,487.521 313.042,487.187 309.5,487.5 Z"/></g>
<g><path style="opacity:0.039" fill="#171616" d="M 418.5,486.5 C 422.902,486.228 427.235,486.561 431.5,487.5C 434.002,491.838 436.502,496.171 439,500.5C 440.134,495.561 442.301,491.227 445.5,487.5C 449.765,486.561 454.098,486.228 458.5,486.5C 458.179,497.748 458.513,508.915 459.5,520C 459.043,520.414 458.709,520.914 458.5,521.5C 453.533,522.662 448.533,522.829 443.5,522C 442.62,520.644 442.286,519.144 442.5,517.5C 443.5,517.5 444.5,517.5 445.5,517.5C 445.665,513.818 445.499,510.152 445,506.5C 444.322,515.642 439.656,518.642 431,515.5C 430.71,513.048 430.044,510.715 429,508.5C 428.539,513.184 428.705,517.851 429.5,522.5C 425.445,522.824 421.445,522.491 417.5,521.5C 416.29,519.183 416.79,517.183 419,515.5C 419.667,507.833 419.667,500.167 419,492.5C 416.361,490.384 416.194,488.384 418.5,486.5 Z"/></g>
<g><path style="opacity:0.043" fill="#0b090b" d="M 149.5,485.5 C 153.146,485.577 156.479,486.577 159.5,488.5C 159.192,489.308 158.692,489.975 158,490.5C 157.089,501.269 157.589,511.935 159.5,522.5C 154.125,522.828 148.792,522.495 143.5,521.5C 142.54,520.188 142.706,518.854 144,517.5C 144.766,508.309 144.599,499.142 143.5,490C 143.833,489.167 144.167,488.333 144.5,487.5C 146.336,486.972 148.003,486.306 149.5,485.5 Z"/></g>
<g><path style="opacity:0.072" fill="#121111" d="M 212.5,486.5 C 216.846,486.334 221.179,486.501 225.5,487C 228.103,490.281 230.436,493.781 232.5,497.5C 233.478,497.023 234.311,496.357 235,495.5C 236.289,492.832 237.456,490.165 238.5,487.5C 241.302,487.018 244.135,486.684 247,486.5C 249.793,486.305 252.293,486.971 254.5,488.5C 254,489.5 253.5,490.5 253,491.5C 252.171,501.321 252.504,510.988 254,520.5C 251.617,521.766 248.95,522.432 246,522.5C 243.5,522.333 241,522.167 238.5,522C 235.682,519.885 235.849,518.052 239,516.5C 239.667,513.5 239.667,510.5 239,507.5C 238.108,510.284 236.942,512.95 235.5,515.5C 228.828,518.329 224.661,516.329 223,509.5C 222.585,513.848 222.751,518.181 223.5,522.5C 219.5,522.5 215.5,522.5 211.5,522.5C 212.49,510.421 212.823,498.421 212.5,486.5 Z"/></g>
<g><path style="opacity:0.087" fill="#0c0a0b" d="M 309.5,487.5 C 309.328,488.492 309.662,489.158 310.5,489.5C 310.819,499.416 310.486,509.25 309.5,519C 312.167,519.667 314.833,519.667 317.5,519C 316.944,518.617 316.611,518.117 316.5,517.5C 316.177,510.978 316.51,504.645 317.5,498.5C 321.489,505.139 325.489,511.806 329.5,518.5C 331.743,519.474 334.076,519.808 336.5,519.5C 336.192,509.085 336.525,498.751 337.5,488.5C 337.5,488.167 337.5,487.833 337.5,487.5C 338.833,487.5 340.167,487.5 341.5,487.5C 341.688,489.103 341.188,490.437 340,491.5C 339.667,501.5 339.333,511.5 339,521.5C 337.262,522.127 335.429,522.46 333.5,522.5C 330.989,522.712 328.822,522.045 327,520.5C 324.333,515.833 321.667,511.167 319,506.5C 318.516,511.626 318.849,516.626 320,521.5C 315.333,522.833 310.667,522.833 306,521.5C 306.637,515.602 307.137,509.602 307.5,503.5C 307.475,498.451 307.142,493.451 306.5,488.5C 307.325,487.614 308.325,487.281 309.5,487.5 Z"/></g>
<g><path style="opacity:0.52" fill="#585454" d="M 309.5,487.5 C 313.042,487.187 316.375,487.521 319.5,488.5C 316.287,488.19 313.287,488.523 310.5,489.5C 309.662,489.158 309.328,488.492 309.5,487.5 Z"/></g>
<g><path style="opacity:0.077" fill="#0f0e0f" d="M 356.5,485.5 C 362.211,486.005 367.878,486.838 373.5,488C 375.959,489.971 378.459,491.804 381,493.5C 381.888,497.027 382.722,500.527 383.5,504C 382.827,507.854 381.993,511.687 381,515.5C 377.894,518.213 374.394,520.38 370.5,522C 362.812,522.831 355.145,522.665 347.5,521.5C 346.712,519.671 347.212,518.004 349,516.5C 349.667,508.5 349.667,500.5 349,492.5C 346.852,490.428 347.018,488.594 349.5,487C 352.036,486.814 354.369,486.314 356.5,485.5 Z M 362.5,495.5 C 364.167,495.5 365.833,495.5 367.5,495.5C 368.496,500.463 368.663,505.463 368,510.5C 366.599,512.192 364.766,512.859 362.5,512.5C 362.5,506.833 362.5,501.167 362.5,495.5 Z"/></g>
<g><path style="opacity:0.503" fill="#575454" d="M 365.5,488.5 C 360.637,488.181 355.97,488.514 351.5,489.5C 350.957,489.44 350.624,489.107 350.5,488.5C 355.652,487.186 360.652,487.186 365.5,488.5 Z"/></g>
<g><path style="opacity:0.079" fill="#191919" d="M 468.5,486.5 C 473.547,486.337 478.547,486.671 483.5,487.5C 480.87,499.073 480.87,510.74 483.5,522.5C 477.833,522.5 472.167,522.5 466.5,522.5C 466.341,519.813 467.175,517.48 469,515.5C 469.667,507.833 469.667,500.167 469,492.5C 465.898,490.663 465.731,488.663 468.5,486.5 Z"/></g>
<g><path style="opacity:0.088" fill="#161515" d="M 492.5,487.5 C 496.311,486.355 500.311,486.188 504.5,487C 505.931,487.465 507.097,488.299 508,489.5C 509.044,492.565 510.71,495.232 513,497.5C 513.455,494.863 512.955,492.363 511.5,490C 511.833,489.167 512.167,488.333 512.5,487.5C 516.482,486.329 520.482,486.329 524.5,487.5C 524.716,489.681 523.883,491.347 522,492.5C 521.5,502.494 521.334,512.494 521.5,522.5C 518.167,522.5 514.833,522.5 511.5,522.5C 509.142,517.663 506.309,512.996 503,508.5C 502.539,513.184 502.705,517.851 503.5,522.5C 499.167,522.5 494.833,522.5 490.5,522.5C 491.572,516.582 492.239,510.582 492.5,504.5C 492.391,499.386 491.724,494.386 490.5,489.5C 490.747,488.287 491.414,487.62 492.5,487.5 Z"/></g>
<g><path style="opacity:0.524" fill="#5c5959" d="M 492.5,487.5 C 496.042,487.187 499.375,487.521 502.5,488.5C 499.287,488.19 496.287,488.523 493.5,489.5C 492.662,489.158 492.328,488.492 492.5,487.5 Z"/></g>
<g><path style="opacity:0.508" fill="#393737" d="M 742.5,487.5 C 742.672,488.492 742.338,489.158 741.5,489.5C 737.167,488.167 732.833,488.167 728.5,489.5C 727.662,489.158 727.328,488.492 727.5,487.5C 732.5,486.167 737.5,486.167 742.5,487.5 Z"/></g>
<g><path style="opacity:0.084" fill="#111010" d="M 763.5,487.5 C 768.355,486.309 773.355,486.309 778.5,487.5C 778.716,489.681 777.883,491.347 776,492.5C 775.169,499.524 775.336,506.524 776.5,513.5C 776.3,506.203 779.966,502.703 787.5,503C 793.356,506.473 794.023,510.806 789.5,516C 790.752,518.196 790.419,520.196 788.5,522C 779.506,522.5 770.506,522.666 761.5,522.5C 760.908,519.369 761.908,517.036 764.5,515.5C 764.5,516.167 764.5,516.833 764.5,517.5C 764.389,518.117 764.056,518.617 763.5,519C 771.5,519.667 779.5,519.667 787.5,519C 785.253,517.005 784.253,514.505 784.5,511.5C 786.167,511.5 787.833,511.5 789.5,511.5C 789.496,506.011 786.829,504.178 781.5,506C 780.106,506.956 779.439,508.289 779.5,510C 780.418,512.086 781.085,514.253 781.5,516.5C 778.833,516.5 776.167,516.5 773.5,516.5C 773.195,507.083 773.528,497.75 774.5,488.5C 771.038,487.518 767.371,487.185 763.5,487.5 Z"/></g>
<g><path style="opacity:0.966" fill="#ededed" d="M 146.5,489.5 C 149.64,488.359 152.973,488.192 156.5,489C 155.349,498.422 155.182,507.922 156,517.5C 156.5,518 157,518.5 157.5,519C 153.5,519.667 149.5,519.667 145.5,519C 146,518.5 146.5,518 147,517.5C 147.824,507.991 147.658,498.657 146.5,489.5 Z"/></g>
<g><path style="opacity:0.314" fill="#605e5c" d="M 223.5,488.5 C 220.287,488.19 217.287,488.523 214.5,489.5C 213.957,489.44 213.624,489.107 213.5,488.5C 216.98,487.194 220.313,487.194 223.5,488.5 Z"/></g>
<g><path style="opacity:0.952" fill="#f3f2f2" d="M 223.5,488.5 C 227.117,493.453 230.284,498.786 233,504.5C 235.462,499.097 238.296,493.931 241.5,489C 244.5,488.333 247.5,488.333 250.5,489C 249.349,498.422 249.182,507.922 250,517.5C 250.5,518 251,518.5 251.5,519C 247.5,519.667 243.5,519.667 239.5,519C 240,518.5 240.5,518 241,517.5C 241.667,511.5 241.667,505.5 241,499.5C 238.26,503.976 235.76,508.643 233.5,513.5C 231.647,514.76 229.814,514.76 228,513.5C 226.109,508.718 223.943,504.051 221.5,499.5C 221.44,498.957 221.107,498.624 220.5,498.5C 219.183,504.988 219.183,511.322 220.5,517.5C 220.611,518.117 220.944,518.617 221.5,519C 218.833,519.667 216.167,519.667 213.5,519C 214,518.5 214.5,518 215,517.5C 215.805,508.089 215.638,498.756 214.5,489.5C 217.287,488.523 220.287,488.19 223.5,488.5 Z"/></g>
<g><path style="opacity:0.29" fill="#605d5b" d="M 337.5,487.5 C 337.5,487.833 337.5,488.167 337.5,488.5C 334.941,488.198 332.607,488.532 330.5,489.5C 329.957,489.44 329.624,489.107 329.5,488.5C 332.086,487.52 334.753,487.187 337.5,487.5 Z"/></g>
<g><path style="opacity:0.94" fill="#f4f3f3" d="M 365.5,488.5 C 377.704,490.207 382.537,497.207 380,509.5C 378.073,514.428 374.573,517.594 369.5,519C 363.141,519.831 356.807,519.664 350.5,518.5C 351.474,508.887 351.808,499.22 351.5,489.5C 355.97,488.514 360.637,488.181 365.5,488.5 Z M 362.5,495.5 C 362.5,501.167 362.5,506.833 362.5,512.5C 364.766,512.859 366.599,512.192 368,510.5C 368.663,505.463 368.496,500.463 367.5,495.5C 365.833,495.5 364.167,495.5 362.5,495.5 Z"/></g>
<g><path style="opacity:0.938" fill="#f4f3f3" d="M 419.5,489.5 C 422.976,488.357 426.642,488.19 430.5,489C 433.07,494.203 435.736,499.37 438.5,504.5C 441.165,499.51 443.832,494.51 446.5,489.5C 449.784,488.343 453.118,488.176 456.5,489C 455.176,498.803 455.176,508.637 456.5,518.5C 452.878,519.659 449.211,519.825 445.5,519C 446,518.5 446.5,518 447,517.5C 447.667,511.167 447.667,504.833 447,498.5C 444.079,503.341 441.412,508.341 439,513.5C 437.301,514.406 435.467,514.739 433.5,514.5C 425.874,492.868 423.374,493.868 426,517.5C 426.5,518 427,518.5 427.5,519C 424.773,519.818 422.106,519.652 419.5,518.5C 420.777,513.847 421.443,509.013 421.5,504C 421.333,499.5 421.167,495 421,490.5C 420.617,489.944 420.117,489.611 419.5,489.5 Z"/></g>
<g><path style="opacity:0.943" fill="#f2f2f2" d="M 469.5,489.5 C 472.64,488.359 475.973,488.192 479.5,489C 478.349,498.422 478.182,507.922 479,517.5C 479.5,518 480,518.5 480.5,519C 476.5,519.667 472.5,519.667 468.5,519C 469,518.5 469.5,518 470,517.5C 470.824,507.991 470.658,498.657 469.5,489.5 Z"/></g>
<g><path style="opacity:0.941" fill="#f5f5f4" d="M 493.5,489.5 C 496.287,488.523 499.287,488.19 502.5,488.5C 503.794,489.29 504.961,490.29 506,491.5C 508.416,496.001 511.083,500.334 514,504.5C 514.804,499.249 514.637,494.082 513.5,489C 515.833,488.333 518.167,488.333 520.5,489C 519.514,499.084 519.181,509.251 519.5,519.5C 516.635,519.945 514.135,519.278 512,517.5C 508.155,511.139 504.322,504.806 500.5,498.5C 500.44,497.957 500.107,497.624 499.5,497.5C 498.182,504.322 498.182,510.989 499.5,517.5C 499.611,518.117 499.944,518.617 500.5,519C 497.833,519.667 495.167,519.667 492.5,519C 493,518.5 493.5,518 494,517.5C 494.824,507.991 494.658,498.657 493.5,489.5 Z"/></g>
<g><path style="opacity:0.946" fill="#ececeb" d="M 774.5,488.5 C 773.528,497.75 773.195,507.083 773.5,516.5C 776.167,516.5 778.833,516.5 781.5,516.5C 781.085,514.253 780.418,512.086 779.5,510C 779.439,508.289 780.106,506.956 781.5,506C 786.829,504.178 789.496,506.011 789.5,511.5C 787.833,511.5 786.167,511.5 784.5,511.5C 784.253,514.505 785.253,517.005 787.5,519C 779.5,519.667 771.5,519.667 763.5,519C 764.056,518.617 764.389,518.117 764.5,517.5C 765.828,508.098 765.828,498.598 764.5,489C 767.817,488.502 771.15,488.335 774.5,488.5 Z"/></g>
<g><path style="opacity:0.954" fill="#f0eeee" d="M 319.5,488.5 C 323.858,493.373 327.691,498.706 331,504.5C 331.816,499.316 331.65,494.316 330.5,489.5C 332.607,488.532 334.941,488.198 337.5,488.5C 336.525,498.751 336.192,509.085 336.5,519.5C 334.076,519.808 331.743,519.474 329.5,518.5C 325.489,511.806 321.489,505.139 317.5,498.5C 317.44,497.957 317.107,497.624 316.5,497.5C 315.182,504.322 315.182,510.989 316.5,517.5C 316.611,518.117 316.944,518.617 317.5,519C 314.833,519.667 312.167,519.667 309.5,519C 310.486,509.25 310.819,499.416 310.5,489.5C 313.287,488.523 316.287,488.19 319.5,488.5 Z"/></g>
<g><path style="opacity:0.943" fill="#eeeded" d="M 577.5,487.5 C 582.511,487.334 587.511,487.501 592.5,488C 593.406,489.699 593.739,491.533 593.5,493.5C 590.135,493.046 586.802,492.38 583.5,491.5C 579.077,492.342 578.41,494.508 581.5,498C 586.893,500.726 591.726,504.226 596,508.5C 596.777,514.402 594.277,518.235 588.5,520C 583.074,520.469 577.741,519.969 572.5,518.5C 572.162,515.989 572.162,513.655 572.5,511.5C 576.303,514.744 580.636,516.244 585.5,516C 589.469,512.53 588.802,509.863 583.5,508C 578.609,506.484 574.776,503.65 572,499.5C 571.333,497.167 571.333,494.833 572,492.5C 573.73,490.598 575.563,488.931 577.5,487.5 Z"/></g>
<g><path style="opacity:0.949" fill="#f1f0f0" d="M 274.5,487.5 C 284.373,485.728 291.873,489.061 297,497.5C 298.854,514.312 291.354,521.812 274.5,520C 264.452,515.731 260.952,508.231 264,497.5C 266.081,492.584 269.581,489.25 274.5,487.5 Z M 276.5,495.5 C 275.913,496.767 275.913,497.767 276.5,498.5C 287.044,497.379 287.044,496.379 276.5,495.5 Z M 275.5,509.5 C 277.786,514.994 280.786,515.494 284.5,511C 281.413,510.741 278.413,510.241 275.5,509.5 Z"/></g>
<g><path style="opacity:0.065" fill="#121111" d="M 645.5,485.5 C 651.967,485.33 658.3,485.996 664.5,487.5C 663.61,492.781 662.61,498.114 661.5,503.5C 657.192,507.609 652.192,508.609 646.5,506.5C 646.26,510.796 648.26,513.463 652.5,514.5C 662.874,508.383 666.874,511.05 664.5,522.5C 660.071,522.022 655.904,522.688 652,524.5C 635.062,520.921 629.062,510.921 634,494.5C 635.028,492.639 636.528,491.305 638.5,490.5C 639.386,489.675 639.719,488.675 639.5,487.5C 641.786,487.405 643.786,486.738 645.5,485.5 Z M 652.5,496.5 C 653.077,495.227 653.743,495.227 654.5,496.5C 654.03,497.463 653.363,497.463 652.5,496.5 Z"/></g>
<g><path style="opacity:0.949" fill="#f0f0ef" d="M 684.5,487.5 C 696.039,485.513 703.873,489.846 708,500.5C 707.737,515.752 699.904,522.252 684.5,520C 673.311,514.332 670.478,505.832 676,494.5C 678.441,491.546 681.275,489.213 684.5,487.5 Z M 695.5,498.5 C 695.5,497.5 695.5,496.5 695.5,495.5C 692.428,495.183 689.428,495.516 686.5,496.5C 686.167,497.167 685.833,497.833 685.5,498.5C 688.608,497.482 691.942,497.482 695.5,498.5 Z M 697.5,501.5 C 697.784,509.211 694.117,512.211 686.5,510.5C 686.649,509.448 686.483,508.448 686,507.5C 685.333,508.833 685.333,510.167 686,511.5C 687.693,512.184 689.193,513.184 690.5,514.5C 696.36,511.769 698.694,507.436 697.5,501.5 Z"/></g>
<g><path style="opacity:0.087" fill="#131212" d="M 687.5,491.5 C 692.977,491.145 696.81,493.478 699,498.5C 700.888,505.588 699.055,511.422 693.5,516C 688.062,516.933 684.228,514.766 682,509.5C 680.021,502.216 681.855,496.216 687.5,491.5 Z M 695.5,498.5 C 695.5,497.5 695.5,496.5 695.5,495.5C 692.428,495.183 689.428,495.516 686.5,496.5C 686.167,497.167 685.833,497.833 685.5,498.5C 688.608,497.482 691.942,497.482 695.5,498.5 Z M 697.5,501.5 C 697.784,509.211 694.117,512.211 686.5,510.5C 686.649,509.448 686.483,508.448 686,507.5C 685.333,508.833 685.333,510.167 686,511.5C 687.693,512.184 689.193,513.184 690.5,514.5C 696.36,511.769 698.694,507.436 697.5,501.5 Z"/></g>
<g><path style="opacity:0.081" fill="#0f0d0d" d="M 277.5,491.5 C 283.347,491.169 287.18,493.835 289,499.5C 291.13,508.005 288.13,513.672 280,516.5C 276.049,515.216 273.383,512.55 272,508.5C 270.079,501.486 271.912,495.819 277.5,491.5 Z M 276.5,495.5 C 275.913,496.767 275.913,497.767 276.5,498.5C 287.044,497.379 287.044,496.379 276.5,495.5 Z M 275.5,509.5 C 277.786,514.994 280.786,515.494 284.5,511C 281.413,510.741 278.413,510.241 275.5,509.5 Z"/></g>
<g><path style="opacity:0.089" fill="#0d0b0c" d="M 365.5,492.5 C 370.071,494.621 372.404,498.287 372.5,503.5C 371.973,506.581 371.14,509.581 370,512.5C 368.266,514.451 366.099,515.451 363.5,515.5C 362.5,515.5 361.5,515.5 360.5,515.5C 360.5,507.833 360.5,500.167 360.5,492.5C 362.167,492.5 363.833,492.5 365.5,492.5 Z M 362.5,495.5 C 362.5,501.167 362.5,506.833 362.5,512.5C 364.766,512.859 366.599,512.192 368,510.5C 368.663,505.463 368.496,500.463 367.5,495.5C 365.833,495.5 364.167,495.5 362.5,495.5 Z"/></g>
<g><path style="opacity:0.947" fill="#eeeeed" d="M 645.5,487.5 C 651.004,487.15 656.337,487.817 661.5,489.5C 661.36,495.425 659.36,500.592 655.5,505C 649.662,506.48 646.829,504.313 647,498.5C 647.388,497.572 648.055,496.905 649,496.5C 654.311,502.525 656.644,501.525 656,493.5C 651.675,490.431 648.008,491.098 645,495.5C 640.574,503.746 642.074,510.58 649.5,516C 651.5,516.667 653.5,516.667 655.5,516C 657.569,514.477 659.903,513.643 662.5,513.5C 663.395,519.947 660.562,522.28 654,520.5C 639.493,520.321 633.159,512.988 635,498.5C 637.02,493.315 640.52,489.648 645.5,487.5 Z M 652.5,496.5 C 653.363,497.463 654.03,497.463 654.5,496.5C 653.743,495.227 653.077,495.227 652.5,496.5 Z"/></g>
<g><path style="opacity:0.329" fill="#353134" d="M 763.5,487.5 C 767.371,487.185 771.038,487.518 774.5,488.5C 771.15,488.335 767.817,488.502 764.5,489C 765.828,498.598 765.828,508.098 764.5,517.5C 764.5,516.833 764.5,516.167 764.5,515.5C 764.831,507.804 764.497,500.138 763.5,492.5C 761.104,490.494 761.104,488.828 763.5,487.5 Z"/></g>
<g><path style="opacity:0.064" fill="#0e0c0d" d="M 104.5,485.5 C 112.201,486.003 119.868,486.836 127.5,488C 138.215,497.18 139.215,507.346 130.5,518.5C 128.155,520.405 125.488,521.571 122.5,522C 115.476,522.831 108.476,522.664 101.5,521.5C 101.069,520.707 100.735,519.873 100.5,519C 101.746,514.475 102.412,509.808 102.5,505C 102.333,500.833 102.167,496.667 102,492.5C 101.598,491.128 101.098,489.795 100.5,488.5C 101.901,487.479 103.235,486.479 104.5,485.5 Z M 115.5,495.5 C 120.263,496.101 122.929,498.934 123.5,504C 123.213,508.95 120.713,512.117 116,513.5C 114.174,507.593 114.007,501.593 115.5,495.5 Z"/></g>
<g><path style="opacity:0.955" fill="#f1f1f1" d="M 104.5,489.5 C 109.64,488.512 114.974,488.179 120.5,488.5C 133.85,492.72 137.35,501.053 131,513.5C 129.062,516.106 126.562,517.939 123.5,519C 116.833,519.667 110.167,519.667 103.5,519C 104,518.5 104.5,518 105,517.5C 105.824,507.991 105.658,498.657 104.5,489.5 Z M 115.5,495.5 C 114.007,501.593 114.174,507.593 116,513.5C 120.713,512.117 123.213,508.95 123.5,504C 122.929,498.934 120.263,496.101 115.5,495.5 Z"/></g>
<g><path style="opacity:0.069" fill="#131213" d="M 113.5,491.5 C 125.448,493.37 128.948,500.036 124,511.5C 121.194,514.603 117.694,516.27 113.5,516.5C 113.5,508.167 113.5,499.833 113.5,491.5 Z M 115.5,495.5 C 114.007,501.593 114.174,507.593 116,513.5C 120.713,512.117 123.213,508.95 123.5,504C 122.929,498.934 120.263,496.101 115.5,495.5 Z"/></g>
<g><path style="opacity:0.506" fill="#4d4b4b" d="M 120.5,488.5 C 114.974,488.179 109.64,488.512 104.5,489.5C 103.957,489.44 103.624,489.107 103.5,488.5C 109.32,487.184 114.987,487.184 120.5,488.5 Z"/></g>
<g><path style="opacity:0.461" fill="#605c5f" d="M 365.5,492.5 C 363.833,492.5 362.167,492.5 360.5,492.5C 360.5,500.167 360.5,507.833 360.5,515.5C 361.5,515.5 362.5,515.5 363.5,515.5C 362.432,516.434 361.099,516.768 359.5,516.5C 359.5,508.167 359.5,499.833 359.5,491.5C 361.735,491.205 363.735,491.539 365.5,492.5 Z"/></g>
<g><path style="opacity:0.079" fill="#0d0d0d" d="M 533.5,487.5 C 542.038,486.183 550.705,486.183 559.5,487.5C 560.833,490.167 560.833,492.833 559.5,495.5C 554.928,495.786 550.261,495.786 545.5,495.5C 545.5,496.833 545.5,498.167 545.5,499.5C 549.82,500.498 554.153,500.665 558.5,500C 559.661,506.045 556.994,509.545 550.5,510.5C 548.813,510.24 547.313,509.573 546,508.5C 545.51,509.793 545.343,511.127 545.5,512.5C 550.56,512.492 555.56,512.326 560.5,512C 561.167,512.667 561.833,513.333 562.5,514C 561.009,516.621 560.342,519.455 560.5,522.5C 550.833,522.5 541.167,522.5 531.5,522.5C 532.483,510.651 532.817,498.984 532.5,487.5C 532.328,488.492 532.662,489.158 533.5,489.5C 534.658,498.657 534.824,507.991 534,517.5C 533.5,518 533,518.5 532.5,519C 541.494,519.5 550.494,519.666 559.5,519.5C 559.799,517.396 559.466,515.396 558.5,513.5C 557.15,514.95 555.484,515.617 553.5,515.5C 550.167,515.5 546.833,515.5 543.5,515.5C 542.931,511.671 543.598,508.337 545.5,505.5C 550.327,508.78 553.994,507.78 556.5,502.5C 552.377,502.115 548.044,501.782 543.5,501.5C 543.5,498.5 543.5,495.5 543.5,492.5C 546.833,492.5 550.167,492.5 553.5,492.5C 555.39,492.297 556.89,492.963 558,494.5C 558.789,492.288 558.622,490.288 557.5,488.5C 549.684,487.508 541.684,487.174 533.5,487.5 Z"/></g>
<g><path style="opacity:0.448" fill="#555255" d="M 553.5,492.5 C 550.167,492.5 546.833,492.5 543.5,492.5C 543.5,495.5 543.5,498.5 543.5,501.5C 542.521,498.375 542.187,495.042 542.5,491.5C 546.371,491.185 550.038,491.518 553.5,492.5 Z"/></g>
<g><path style="opacity:0.904" fill="#ededed" d="M 533.5,489.5 C 541.316,488.508 549.316,488.174 557.5,488.5C 558.622,490.288 558.789,492.288 558,494.5C 556.89,492.963 555.39,492.297 553.5,492.5C 550.038,491.518 546.371,491.185 542.5,491.5C 542.187,495.042 542.521,498.375 543.5,501.5C 548.044,501.782 552.377,502.115 556.5,502.5C 553.994,507.78 550.327,508.78 545.5,505.5C 544.791,504.596 543.791,504.263 542.5,504.5C 542.5,508.5 542.5,512.5 542.5,516.5C 546.371,516.815 550.038,516.482 553.5,515.5C 555.484,515.617 557.15,514.95 558.5,513.5C 559.466,515.396 559.799,517.396 559.5,519.5C 550.494,519.666 541.494,519.5 532.5,519C 533,518.5 533.5,518 534,517.5C 534.824,507.991 534.658,498.657 533.5,489.5 Z"/></g>
<g><path style="opacity:0.495" fill="#4f4c4c" d="M 532.5,487.5 C 532.833,487.5 533.167,487.5 533.5,487.5C 541.684,487.174 549.684,487.508 557.5,488.5C 549.316,488.174 541.316,488.508 533.5,489.5C 532.662,489.158 532.328,488.492 532.5,487.5 Z"/></g>
<g><path style="opacity:0.93" fill="#e3e2e2" d="M 278.5,499.5 C 281.864,498.873 283.864,500.206 284.5,503.5C 283.329,508.345 280.829,509.345 277,506.5C 276.167,503.829 276.667,501.496 278.5,499.5 Z"/></g>
<g><path style="opacity:0.899" fill="#e2e1e1" d="M 688.5,499.5 C 694.643,500.026 695.976,502.86 692.5,508C 688.478,508.99 686.478,507.323 686.5,503C 686.978,501.697 687.645,500.531 688.5,499.5 Z"/></g>
<g><path style="opacity:0.068" fill="#121111" d="M 193.5,499.5 C 197.051,502.955 199.218,507.288 200,512.5C 201.045,515.154 202.545,517.488 204.5,519.5C 204.333,520.167 204.167,520.833 204,521.5C 198.584,522.639 193.084,522.806 187.5,522C 184.751,519.81 185.085,518.143 188.5,517C 187.845,515.513 186.845,514.347 185.5,513.5C 182.905,514.851 180.238,516.017 177.5,517C 178.406,518.699 178.739,520.533 178.5,522.5C 174.445,522.824 170.445,522.491 166.5,521.5C 166.069,520.707 165.735,519.873 165.5,519C 169.108,514.953 169.775,510.62 167.5,506C 169.21,504.389 171.043,502.889 173,501.5C 173.578,498.097 174.745,494.93 176.5,492C 174.285,490.057 174.285,488.391 176.5,487C 182.157,486.501 187.824,486.334 193.5,486.5C 193.5,490.833 193.5,495.167 193.5,499.5 Z"/></g>
<g><path style="opacity:0.953" fill="#efefef" d="M 193.5,499.5 C 195.096,506.459 197.763,512.959 201.5,519C 197.167,519.667 192.833,519.667 188.5,519C 190.836,515.418 190.169,512.251 186.5,509.5C 183.131,511.173 179.798,512.84 176.5,514.5C 174.913,516.446 175.246,517.946 177.5,519C 174.446,519.821 171.446,519.655 168.5,518.5C 172.331,514.902 172.997,510.902 170.5,506.5C 171.391,505.41 172.391,505.41 173.5,506.5C 175.726,501.439 177.726,496.272 179.5,491C 179.355,490.228 179.022,489.561 178.5,489C 182.833,488.333 187.167,488.333 191.5,489C 190.941,489.725 190.608,490.558 190.5,491.5C 191.515,494.276 192.515,496.943 193.5,499.5 Z"/></g>
<g><path style="opacity:0.162" fill="#1d1b1b" d="M 182.5,495.5 C 184.573,498.043 185.906,501.043 186.5,504.5C 184.257,505.474 181.924,505.808 179.5,505.5C 180.5,502.167 181.5,498.833 182.5,495.5 Z"/></g>
<g><path style="opacity:0.437" fill="#6d6364" d="M 500.5,498.5 C 499.51,504.645 499.177,510.978 499.5,517.5C 498.182,510.989 498.182,504.322 499.5,497.5C 500.107,497.624 500.44,497.957 500.5,498.5 Z"/></g>
<g><path style="opacity:0.698" fill="#7b7679" d="M 221.5,499.5 C 220.51,505.31 220.177,511.31 220.5,517.5C 219.183,511.322 219.183,504.988 220.5,498.5C 221.107,498.624 221.44,498.957 221.5,499.5 Z"/></g>
<g><path style="opacity:0.449" fill="#5d5a5a" d="M 545.5,505.5 C 543.598,508.337 542.931,511.671 543.5,515.5C 546.833,515.5 550.167,515.5 553.5,515.5C 550.038,516.482 546.371,516.815 542.5,516.5C 542.5,512.5 542.5,508.5 542.5,504.5C 543.791,504.263 544.791,504.596 545.5,505.5 Z"/></g>
<g><path style="opacity:0.639" fill="#625e5e" d="M 317.5,498.5 C 316.51,504.645 316.177,510.978 316.5,517.5C 315.182,510.989 315.182,504.322 316.5,497.5C 317.107,497.624 317.44,497.957 317.5,498.5 Z"/></g>
<g><path style="opacity:0.06" fill="#131212" d="M 727.5,487.5 C 727.328,488.492 727.662,489.158 728.5,489.5C 729.097,489.735 729.43,490.235 729.5,491C 727.917,496.332 725.917,501.499 723.5,506.5C 722.391,505.41 721.391,505.41 720.5,506.5C 722.942,511.053 722.275,515.22 718.5,519C 721.227,519.818 723.894,519.652 726.5,518.5C 725.253,516.958 725.253,515.458 726.5,514C 729.952,512.774 733.285,511.274 736.5,509.5C 738.932,511.324 740.266,513.824 740.5,517C 740.355,517.772 740.022,518.439 739.5,519C 743.5,519.667 747.5,519.667 751.5,519C 750.667,518.167 749.833,517.333 749,516.5C 746.267,508.135 743.434,499.802 740.5,491.5C 740.543,490.584 740.876,489.917 741.5,489.5C 742.338,489.158 742.672,488.492 742.5,487.5C 743.5,487.5 744.5,487.5 745.5,487.5C 743.944,492.888 744.777,497.888 748,502.5C 747.636,508.462 749.636,513.462 754,517.5C 754.494,519.134 754.66,520.801 754.5,522.5C 748.833,522.5 743.167,522.5 737.5,522.5C 738.095,519.346 738.095,516.346 737.5,513.5C 734.625,514.623 731.625,515.456 728.5,516C 729.233,517.535 729.233,519.368 728.5,521.5C 724.555,522.491 720.555,522.824 716.5,522.5C 716.424,518.319 717.758,514.652 720.5,511.5C 719.593,508.579 719.26,505.579 719.5,502.5C 720.833,502.5 722.167,502.5 723.5,502.5C 724.368,499.157 725.368,495.824 726.5,492.5C 724.827,490.239 725.16,488.572 727.5,487.5 Z"/></g>
<g><path style="opacity:0.954" fill="#f1f1f1" d="M 728.5,489.5 C 732.833,488.167 737.167,488.167 741.5,489.5C 740.876,489.917 740.543,490.584 740.5,491.5C 743.434,499.802 746.267,508.135 749,516.5C 749.833,517.333 750.667,518.167 751.5,519C 747.5,519.667 743.5,519.667 739.5,519C 740.022,518.439 740.355,517.772 740.5,517C 740.266,513.824 738.932,511.324 736.5,509.5C 733.285,511.274 729.952,512.774 726.5,514C 725.253,515.458 725.253,516.958 726.5,518.5C 723.894,519.652 721.227,519.818 718.5,519C 722.275,515.22 722.942,511.053 720.5,506.5C 721.391,505.41 722.391,505.41 723.5,506.5C 725.917,501.499 727.917,496.332 729.5,491C 729.43,490.235 729.097,489.735 728.5,489.5 Z"/></g>
<g><path style="opacity:0.165" fill="#221f1f" d="M 731.5,495.5 C 732.376,495.369 733.043,495.702 733.5,496.5C 734.801,499.427 735.801,502.427 736.5,505.5C 734.076,505.808 731.743,505.474 729.5,504.5C 730.642,501.601 731.308,498.601 731.5,495.5 Z"/></g>
</svg>
